
<svg width="13" height="15" viewBox="0 0 13 15" fill="none" xmlns="http://www.w3.org/2000/svg">
<path fill-rule="evenodd" clip-rule="evenodd" d="M6.5 3.83885e-07C6.74623 3.86821e-07 6.98237 0.0987607 7.15648 0.274556C7.33059 0.450352 7.4284 0.688783 7.4284 0.937396L7.4284 11.7981L11.4131 7.77288C11.4994 7.68573 11.6019 7.61659 11.7147 7.56942C11.8275 7.52225 11.9484 7.49798 12.0704 7.49798C12.1925 7.49798 12.3134 7.52225 12.4262 7.56942C12.5389 7.61659 12.6414 7.68573 12.7277 7.77288C12.8141 7.86004 12.8825 7.9635 12.9292 8.07738C12.976 8.19125 13 8.3133 13 8.43656C13 8.55981 12.976 8.68186 12.9292 8.79574C12.8825 8.90961 12.8141 9.01308 12.7277 9.10023L7.15731 14.7246C7.07107 14.8119 6.96862 14.8812 6.85583 14.9284C6.74303 14.9757 6.62212 15 6.5 15C6.37788 15 6.25697 14.9757 6.14417 14.9284C6.03138 14.8812 5.92893 14.8119 5.84269 14.7246L0.272267 9.10023C0.0979376 8.92422 7.52998e-08 8.68548 7.82683e-08 8.43656C8.12367e-08 8.18763 0.0979376 7.9489 0.272267 7.77288C0.446596 7.59686 0.683038 7.49798 0.929577 7.49798C1.17612 7.49798 1.41256 7.59686 1.58689 7.77288L5.5716 11.7981L5.5716 0.937396C5.5716 0.688783 5.66941 0.450352 5.84352 0.274556C6.01763 0.0987607 6.25377 3.80948e-07 6.5 3.83885e-07Z" fill="#FC5B5B"/>
</svg>
