<svg width="14" height="11" viewBox="0 0 14 11" fill="none" xmlns="http://www.w3.org/2000/svg">
<path fill-rule="evenodd" clip-rule="evenodd" d="M0.5 5.5C0.5 5.29165 0.585593 5.09184 0.737949 4.94452C0.890305 4.79719 1.09695 4.71443 1.31241 4.71443L10.725 4.71443L7.2365 1.34275C7.16096 1.26971 7.10104 1.183 7.06017 1.08757C7.01929 0.992139 6.99825 0.889858 6.99825 0.786564C6.99825 0.683271 7.01929 0.580989 7.06017 0.485558C7.10104 0.390128 7.16096 0.303418 7.2365 0.230379C7.31203 0.15734 7.4017 0.0994011 7.50039 0.0598732C7.59908 0.0203443 7.70486 -4.47047e-07 7.81168 -4.56386e-07C7.9185 -4.65725e-07 8.02428 0.0203443 8.12297 0.0598731C8.22166 0.099401 8.31133 0.15734 8.38687 0.230379L13.2613 4.94381C13.337 5.01679 13.397 5.10348 13.438 5.19892C13.4789 5.29435 13.5 5.39667 13.5 5.5C13.5 5.60333 13.4789 5.70564 13.438 5.80108C13.397 5.89652 13.337 5.98321 13.2613 6.05618L8.38687 10.7696C8.23432 10.9171 8.02742 11 7.81168 11C7.59595 11 7.38905 10.9171 7.2365 10.7696C7.08395 10.6221 6.99825 10.422 6.99825 10.2134C6.99825 10.0048 7.08395 9.80476 7.2365 9.65725L10.725 6.28557L1.31241 6.28557C1.09695 6.28557 0.890305 6.20281 0.737949 6.05548C0.585593 5.90816 0.5 5.70835 0.5 5.5Z" fill="white"/>
</svg>
