<svg width="19" height="15" viewBox="0 0 19 15" fill="none" xmlns="http://www.w3.org/2000/svg">
<path d="M16.0847 1.18192C14.8734 0.635669 13.5751 0.231919 12.2174 0.00233555C12.2053 1.43148e-05 12.1928 0.0015102 12.1816 0.00661635C12.1704 0.0117225 12.161 0.0201863 12.1548 0.0308356C11.9886 0.322961 11.8033 0.703752 11.6735 1.00459C10.2335 0.78944 8.7696 0.78944 7.32963 1.00459C7.18502 0.671183 7.02195 0.346096 6.84117 0.0308356C6.83504 0.0200552 6.82577 0.0113999 6.8146 0.00602482C6.80343 0.000649693 6.79088 -0.00118973 6.77863 0.000752141C5.42171 0.230335 4.12338 0.634086 2.91134 1.18113C2.90091 1.1855 2.89207 1.19296 2.88601 1.2025C0.422339 4.82438 -0.252953 8.35679 0.0787555 11.8449C0.0796785 11.8534 0.0823303 11.8617 0.0865494 11.8692C0.0907685 11.8767 0.0964667 11.8832 0.103297 11.8884C1.54127 12.9353 3.14515 13.7329 4.84776 14.2476C4.85962 14.2512 4.87232 14.2512 4.88418 14.2476C4.89605 14.2439 4.90653 14.2367 4.91426 14.227C5.28063 13.737 5.6053 13.2172 5.88484 12.673C5.88872 12.6655 5.89095 12.6573 5.8914 12.649C5.89184 12.6406 5.89047 12.6322 5.88739 12.6244C5.88432 12.6166 5.8796 12.6095 5.87356 12.6037C5.86752 12.5979 5.86029 12.5934 5.85238 12.5906C5.34097 12.398 4.84545 12.1656 4.37038 11.8955C4.36184 11.8907 4.35465 11.8838 4.34945 11.8754C4.34424 11.8671 4.34119 11.8576 4.34056 11.8478C4.33993 11.838 4.34175 11.8281 4.34585 11.8192C4.34995 11.8103 4.3562 11.8025 4.36405 11.7966C4.4638 11.723 4.56355 11.6462 4.65855 11.5694C4.6671 11.5625 4.6774 11.5581 4.6883 11.5567C4.6992 11.5553 4.71028 11.5569 4.7203 11.5615C7.82917 12.958 11.1961 12.958 14.2686 11.5615C14.2786 11.5567 14.2898 11.5548 14.3009 11.5561C14.3119 11.5573 14.3224 11.5617 14.3311 11.5686C14.4261 11.6462 14.5251 11.723 14.6256 11.7966C14.6336 11.8024 14.6399 11.8101 14.6441 11.8189C14.6484 11.8278 14.6503 11.8375 14.6499 11.8473C14.6494 11.8571 14.6465 11.8667 14.6414 11.8751C14.6364 11.8835 14.6293 11.8905 14.6209 11.8955C14.1475 12.1679 13.655 12.3983 13.1381 12.5898C13.1301 12.5927 13.1229 12.5973 13.1169 12.6032C13.1108 12.6091 13.1061 12.6162 13.103 12.624C13.1 12.6319 13.0986 12.6403 13.0991 12.6488C13.0995 12.6572 13.1017 12.6655 13.1056 12.673C13.3906 13.2168 13.7168 13.7346 14.0754 14.2262C14.0829 14.2363 14.0933 14.2438 14.1052 14.2478C14.1171 14.2518 14.1299 14.252 14.1419 14.2484C15.8474 13.7351 17.4539 12.9372 18.8935 11.8884C18.9005 11.8835 18.9064 11.8772 18.9108 11.8698C18.9152 11.8624 18.9179 11.8542 18.9188 11.8457C19.3147 7.81292 18.2554 4.309 16.1092 1.20409C16.104 1.194 16.0952 1.18613 16.0847 1.18192ZM6.34955 9.72083C5.4138 9.72083 4.64192 8.87454 4.64192 7.83667C4.64192 6.798 5.39876 5.9525 6.34955 5.9525C7.30746 5.9525 8.07221 6.80513 8.05717 7.83667C8.05717 8.87533 7.30034 9.72083 6.34955 9.72083V9.72083ZM12.6631 9.72083C11.7265 9.72083 10.9555 8.87454 10.9555 7.83667C10.9555 6.798 11.7115 5.9525 12.6631 5.9525C13.621 5.9525 14.3858 6.80513 14.3707 7.83667C14.3707 8.87533 13.6218 9.72083 12.6631 9.72083V9.72083Z" fill="white"/>
</svg>
