<svg width="63" height="63" viewBox="0 0 63 63" fill="none" xmlns="http://www.w3.org/2000/svg">
<g clip-path="url(#clip0_413_95)">
<path d="M20.2071 47.079C19.777 47.066 19.4302 47.039 18.9861 46.9428C18.542 46.8467 18.1952 46.8196 17.8343 46.7094C17.0294 46.5031 16.2936 46.1994 15.5437 45.8126C14.058 45.1222 12.7658 44.0568 11.681 42.6997C10.6103 41.4258 9.83016 39.8461 9.4801 38.2794C9.25645 37.4614 9.21324 36.6986 9.15598 35.8526C9.16895 35.4225 9.19597 35.0757 9.20894 34.6457C9.22191 34.2156 9.33212 33.8548 9.3451 33.4247L9.62493 34.5755C9.69515 34.9914 9.83453 35.3102 9.98796 35.7121C10.1976 36.4469 10.4904 37.1676 10.7691 37.805C11.3407 39.1632 12.0646 40.4101 13.0241 41.5317C13.9835 42.6532 15.0121 43.6775 16.2763 44.5765C16.8598 44.9914 17.5264 45.3923 18.1931 45.7932C18.4848 46.0006 18.8597 46.1941 19.2346 46.3875L20.2071 47.079ZM20.4631 50.1162C20.2416 50.3248 19.9229 50.4642 19.6041 50.6035C19.2854 50.7429 19.0498 50.8682 18.717 50.9244C18.1487 51.1059 17.4972 51.3015 16.8175 51.3307C15.5555 51.4582 14.1682 51.3501 12.9883 50.9503C11.7252 50.5645 10.5723 49.8179 9.72416 48.8487C9.3071 48.4057 8.87599 47.8795 8.52808 47.3392C8.40274 47.1037 8.26337 46.785 8.12399 46.4662C8.08185 46.2166 7.95652 45.9811 7.90034 45.6483C8.19206 45.8557 8.4006 46.0772 8.59508 46.2155C8.88681 46.423 9.09534 46.6445 9.28983 46.7828C9.77604 47.1286 10.1791 47.4884 10.6512 47.7509C11.6096 48.3593 12.554 48.8844 13.6366 49.215C14.6361 49.5597 15.7878 49.7931 16.8424 49.9574C17.3697 50.0395 17.9661 50.0244 18.5766 50.0925C18.8402 50.1335 19.173 50.0773 19.4367 50.1184C19.8667 50.1314 20.1163 50.0892 20.4631 50.1162M32.4398 6.50788C32.8698 6.52086 33.2307 6.63107 33.6748 6.72724C34.1189 6.82341 34.4797 6.93362 34.8406 7.04384C35.6596 7.33342 36.3954 7.63704 37.1453 8.02387C38.645 8.79751 39.9513 9.94609 40.9529 11.3172C41.9545 12.6884 42.6514 14.2821 42.9182 15.8629C43.0587 16.6949 43.1019 17.4577 43.076 18.3177C43.063 18.7478 43.036 19.0946 42.9398 19.5387C42.8436 19.9828 42.8166 20.3296 42.7064 20.6905L42.4266 19.5398C42.3563 19.1238 42.3002 18.791 42.1467 18.389L41.5179 16.1848C41.0296 14.8126 40.2916 13.4825 39.4013 12.2637C38.511 11.0449 37.4824 10.0206 36.3014 9.10759C35.7039 8.60947 35.0373 8.2086 34.4397 7.71049C34.148 7.50304 33.7731 7.30962 33.3982 7.11621L32.4398 6.50788M39.6218 4.95315C39.9686 4.98017 40.2323 5.02123 40.51 5.14549C40.7736 5.18655 41.1345 5.29676 41.4122 5.42102C41.9675 5.66954 42.5229 5.91806 43.0923 6.24978C44.1479 6.92726 45.0653 7.79922 45.6779 8.89376C46.3737 9.97426 46.7508 11.1941 46.7951 12.4702C46.8102 13.0666 46.7421 13.6771 46.674 14.2876C46.633 14.5512 46.5228 14.9121 46.4817 15.1757C46.3574 15.4534 46.3164 15.7171 46.1089 16.0088L45.828 14.3448C45.7297 13.7624 45.5622 13.2773 45.478 12.7781C45.129 11.7246 44.794 10.7544 44.2235 9.9094C43.639 8.98126 42.9994 8.23355 42.2625 7.41669C41.8595 7.05689 41.4424 6.61388 41.0394 6.25407C40.8309 6.03257 40.6364 5.89427 40.3446 5.68681C40.108 5.29891 39.8163 5.09145 39.6218 4.95315" fill="white"/>
<path d="M10.8481 22.5601C9.31052 23.5898 9.06522 25.6849 10.0949 27.2224L24.2717 47.3337L29.6321 43.605L15.4412 23.4105C14.4115 21.873 12.3716 21.4473 10.8481 22.5601M41.322 35.2995L46.9871 31.3482L30.793 8.41139C29.6801 6.88789 27.5569 6.4762 25.9502 7.60313C24.4267 8.71602 24.015 10.8392 25.142 12.4459L41.322 35.2995Z" fill="#FFDD67"/>
<path d="M26.0195 7.5061C25.8671 7.61739 25.7148 7.72868 25.5765 7.92316C27.087 7.24031 28.8773 7.70818 29.8789 9.07934L46.073 32.0161L47.0703 31.3344L30.8762 8.39756C29.7493 6.79086 27.6262 6.37917 26.0195 7.5061" fill="#EBA352"/>
<path d="M29.6177 43.5219L35.5042 39.3621L18.9763 15.9682C17.8493 14.3615 15.5457 13.8947 13.939 15.0217C12.3323 16.1486 11.9487 18.4382 13.0757 20.0449L29.6177 43.5219Z" fill="#FFDD67"/>
<path d="M13.9532 15.1049C13.8009 15.2162 13.6485 15.3275 13.5102 15.522C15.0208 14.8391 16.9775 15.2789 17.9932 16.7333L28.2468 31.3459L30.2598 32.1185L18.9905 16.0515C17.8495 14.3616 15.6431 13.964 13.9532 15.1049" fill="#EBA352"/>
<path d="M34.1689 37.5344L40.0555 33.3746L23.5275 9.98076C22.4006 8.37406 20.097 7.90726 18.5043 9.11739C16.8976 10.2443 16.514 12.5339 17.641 14.1406L34.1689 37.5344Z" fill="#FFDD67"/>
<path d="M18.4899 9.03378C18.3376 9.14507 18.1993 9.33955 18.0469 9.45084C19.5575 8.76799 21.5142 9.20777 22.5299 10.6621L34.133 27.1862L36.146 27.9587L23.5271 9.98035C22.3862 8.29045 20.0966 7.90685 18.4899 9.03378M10.8475 22.5603C10.6951 22.6716 10.5428 22.7829 10.4045 22.9774C11.8318 22.3086 13.539 22.7905 14.4574 24.1757L22.9023 36.1843L24.9153 36.9569L15.4547 23.4939C14.4109 21.8732 12.371 21.4474 10.8475 22.5603Z" fill="#EBA352"/>
<path d="M52.6908 12.9298C50.1495 11.5619 46.8119 14.0935 45.9928 20.3927C45.4471 24.7633 45.4914 26.0393 43.0397 27.7367L41.0225 24.9112C41.0225 24.9112 19.3185 40.2982 20.5427 41.9741C20.5427 41.9741 24.8602 50.3155 30.3739 53.5775C38.5683 58.5263 54.1815 49.1305 52.2476 33.1134C51.1045 23.8082 55.4266 14.4361 52.6908 12.9298Z" fill="#FFDD67"/>
<path d="M52.6907 12.9295C52.2185 12.6669 51.6912 12.5848 51.178 12.5859C51.2752 12.655 51.4416 12.6269 51.5389 12.6961C54.3579 14.1883 52.5231 19.0331 51.7829 23.2654C51.1519 26.6236 50.7013 30.0368 51.4014 33.1702C54.3985 46.8687 41.6141 55.7869 32.8729 54.6955C41.6022 56.7302 55.6486 47.6845 52.5532 33.4036C51.8531 30.2702 52.2486 27.0374 52.9347 23.4988C53.5917 19.2806 55.4265 14.4357 52.6907 12.9295" fill="#EBA352"/>
<path d="M43.7324 27.2772C38.6724 28.7304 32.3515 37.4131 39.0385 44.5844C33.7518 37.0912 39.231 30.5186 42.9847 27.9168C43.3445 27.5138 43.7324 27.2772 43.7324 27.2772" fill="#EBA352"/>
</g>
<defs>
<clipPath id="clip0_413_95">
<rect width="54" height="54" fill="white" transform="translate(0 8.98926) rotate(-9.58225)"/>
</clipPath>
</defs>
</svg>
