<svg width="153" height="55" viewBox="0 0 153 55" fill="none" xmlns="http://www.w3.org/2000/svg">
<path d="M46.1869 31.5H47.8249V28.014H50.2889C52.2349 28.014 53.3409 26.67 53.3409 25.088C53.3409 23.506 52.2489 22.162 50.2889 22.162H46.1869V31.5ZM51.6609 25.088C51.6609 25.984 50.9889 26.572 50.0649 26.572H47.8249V23.604H50.0649C50.9889 23.604 51.6609 24.192 51.6609 25.088ZM57.7844 31.5H59.4224V22.162H57.7844V31.5ZM70.7315 31.5H72.6915L69.2055 26.698L72.4815 22.162H70.5075L68.1135 25.592L65.7055 22.162H63.7455L67.0355 26.712L63.5355 31.5H65.4955L68.1135 27.846L70.7315 31.5ZM76.8234 31.5H83.2214V30.058H78.4614V27.468H83.1234V26.026H78.4614V23.604H83.2214V22.162H76.8234V31.5ZM87.9834 31.5H93.7374V30.058H89.6214V22.162H87.9834V31.5ZM104.552 26.838C104.552 29.764 106.75 31.682 109.452 31.682C111.076 31.682 112.378 31.01 113.302 29.988V26.488H108.878V27.93H111.664V29.386C111.244 29.778 110.404 30.226 109.452 30.226C107.604 30.226 106.232 28.798 106.232 26.838C106.232 24.878 107.604 23.464 109.452 23.464C110.502 23.464 111.384 24.01 111.874 24.71L113.218 23.954C112.462 22.876 111.272 22.008 109.452 22.008C106.75 22.008 104.552 23.912 104.552 26.838ZM117.667 26.838C117.667 29.624 119.641 31.668 122.441 31.668C125.241 31.668 127.215 29.624 127.215 26.838C127.215 24.052 125.241 22.008 122.441 22.008C119.641 22.008 117.667 24.052 117.667 26.838ZM125.535 26.838C125.535 28.756 124.317 30.212 122.441 30.212C120.551 30.212 119.347 28.756 119.347 26.838C119.347 24.906 120.551 23.464 122.441 23.464C124.317 23.464 125.535 24.906 125.535 26.838ZM146.598 31.5H148.236V23.604H151.064V22.162H143.77V23.604H146.598V31.5Z" fill="white"/>
<path d="M138.48 31.5H140.272L136.604 22.162H134.56L130.892 31.5H132.684L133.37 29.708H137.794L138.48 31.5ZM135.582 23.548L137.332 28.266H133.832L135.582 23.548Z" fill="#EE4540"/>
<path d="M27.0483 17.6577C27.2071 18.3357 27.3141 19.0274 27.397 19.7192C27.4384 20.0651 27.4695 20.4145 27.4902 20.7638C27.5144 21.1132 27.5282 21.4625 27.5317 21.8118C27.542 22.514 27.5109 23.2162 27.4177 23.9218C27.3728 24.2746 27.3072 24.6239 27.2209 24.9733L27.1519 25.2327C27.1242 25.3192 27.0966 25.4056 27.069 25.4887L27.0483 25.5544L27.0241 25.6166L26.9758 25.7446C26.9585 25.7861 26.9447 25.8276 26.924 25.8726L26.8687 25.9971L26.8135 26.1216C26.7962 26.1631 26.7721 26.2046 26.7479 26.2427L26.6823 26.3638L26.6202 26.4779C26.5787 26.5505 26.5373 26.6197 26.4993 26.6958C26.4613 26.7684 26.4234 26.8445 26.3888 26.9172C26.2438 27.2181 26.1299 27.5329 26.0367 27.858C25.8468 28.5083 25.7432 29.1966 25.6431 29.8815C25.5429 30.5698 25.4393 31.2616 25.2425 31.936C25.0457 32.6105 24.7695 33.2712 24.3897 33.8696C24.3 34.0218 24.1929 34.167 24.0928 34.3123C24.041 34.3849 23.9858 34.4541 23.9305 34.5233L23.8477 34.6305L23.7613 34.7308L23.5887 34.9349L23.4057 35.1286L23.3125 35.2254C23.2814 35.2566 23.2504 35.2877 23.2193 35.3188L23.0363 35.5056C22.5426 35.9968 22.0281 36.4706 21.5033 36.9272C20.9785 37.3873 20.4399 37.83 19.8978 38.2624L19.0899 38.9057C18.9552 39.0129 18.824 39.1202 18.6963 39.2274C18.5685 39.3346 18.4442 39.4453 18.3199 39.556C18.1991 39.6667 18.0852 39.7808 17.9781 39.9019C17.8711 40.0195 17.7744 40.144 17.6881 40.272L17.657 40.3204L17.626 40.3688L17.5569 40.4795L17.5155 40.5452L17.4948 40.5764L17.4706 40.6075L17.3774 40.7286C17.2496 40.8807 17.1081 41.0122 16.963 41.1332C16.3726 41.6071 15.689 41.9046 14.9709 42.0533C14.6118 42.1294 14.2423 42.1536 13.8764 42.1294L13.7383 42.119C13.6934 42.1156 13.6485 42.1086 13.6002 42.1017C13.5553 42.0948 13.5104 42.0914 13.4655 42.081L13.3308 42.0533C13.1513 42.0153 12.9752 41.9565 12.806 41.8873C12.4677 41.7524 12.1604 41.5449 11.898 41.2958C11.639 41.0468 11.4284 40.7562 11.2627 40.4484L11.3179 40.4138C11.5286 40.687 11.7668 40.9326 12.0361 41.1298C12.3054 41.3269 12.6023 41.4791 12.9165 41.5691C13.0753 41.614 13.2342 41.6486 13.3964 41.6659L13.5173 41.6797C13.5587 41.6832 13.6002 41.6832 13.6381 41.6867C13.6796 41.6867 13.7175 41.6936 13.759 41.6936H13.8798C14.2044 41.6867 14.5289 41.6348 14.8431 41.5448C15.1573 41.4549 15.4611 41.3339 15.7477 41.1851C16.0343 41.0364 16.3036 40.8496 16.5384 40.6455C16.6523 40.5383 16.7593 40.4276 16.8526 40.3135L16.9147 40.2236L16.932 40.2028L16.9458 40.1786L16.9734 40.1336L16.9872 40.1129C16.9907 40.1059 16.9976 40.099 17.001 40.0887L17.0356 40.0264L17.0701 39.9641L17.1081 39.9019C17.2116 39.7393 17.3256 39.5871 17.4464 39.4453C17.5673 39.3035 17.6985 39.172 17.8262 39.0475C18.0886 38.7985 18.3614 38.5737 18.6376 38.3557C18.9138 38.1378 19.1866 37.9268 19.4628 37.7193C20.0118 37.3008 20.5573 36.8857 21.0924 36.4499C21.6276 36.0175 22.1455 35.5679 22.6669 35.1182L22.8602 34.9487C22.8913 34.9211 22.9258 34.8934 22.9569 34.8623L23.0501 34.7758L23.2365 34.6063L23.4161 34.4264L23.5059 34.3365L23.5922 34.2431L23.7613 34.0563C23.8684 33.9249 23.9789 33.8004 24.079 33.662C24.1826 33.5271 24.2758 33.3853 24.369 33.247L24.5002 33.029C24.5209 32.9945 24.5416 32.9564 24.5624 32.9184L24.6211 32.8077C24.6418 32.7696 24.6625 32.7316 24.6798 32.6935L24.735 32.5794C24.7695 32.5033 24.8075 32.4272 24.8386 32.3476C24.9042 32.192 24.9629 32.0294 25.0181 31.8703C25.2322 31.22 25.3427 30.5386 25.4186 29.8538C25.498 29.1655 25.5395 28.4702 25.6707 27.7715C25.7363 27.4222 25.8226 27.0763 25.9469 26.7339C25.978 26.6508 26.0125 26.5644 26.047 26.4814C26.0815 26.3983 26.123 26.3153 26.1575 26.2323L26.1851 26.1701L26.2093 26.1147L26.2611 26.004C26.2956 25.9314 26.3232 25.8553 26.3543 25.7757C26.4717 25.4679 26.5684 25.1531 26.6409 24.8245C26.6512 24.783 26.6616 24.745 26.6685 24.7035L26.6961 24.579C26.7134 24.496 26.7306 24.4164 26.7445 24.3334L26.7893 24.0843L26.8273 23.8353C26.8757 23.4998 26.9171 23.1643 26.9447 22.8218C26.9516 22.7354 26.9585 22.6524 26.9654 22.5659C26.9723 22.4794 26.9792 22.3964 26.9827 22.3099C26.993 22.1404 27.0034 21.9675 27.0103 21.798C27.0655 20.4283 27.0345 19.0482 26.9723 17.6612L27.0483 17.6577Z" fill="white"/>
<path d="M22.8529 21.4525C22.6527 21.6531 22.6423 22.0024 22.9807 21.8745C23.319 21.7465 23.7852 21.7915 24.2064 21.8745C24.6276 21.9575 26.057 21.8295 26.278 20.8575C26.4886 19.9271 26.53 19.8856 26.53 19.8856C26.53 19.8856 25.988 19.9133 25.5149 19.7161C25.0074 19.5051 23.8231 19.7161 23.319 20.6466C22.9116 21.3937 23.0221 21.283 22.8529 21.4525Z" fill="white"/>
<path d="M22.7495 20.539C22.8289 20.2346 22.9808 19.9545 23.1742 19.702C23.2709 19.5774 23.3814 19.4598 23.5056 19.3561C23.5367 19.3319 23.5678 19.3042 23.5989 19.28L23.699 19.2108L23.8026 19.1451C23.8371 19.1243 23.8751 19.107 23.9096 19.0863C23.9441 19.0655 23.9821 19.0517 24.0201 19.0344L24.0753 19.0102L24.134 18.9894C24.21 18.9618 24.2894 18.9445 24.3688 18.9237C24.5276 18.8926 24.6934 18.8857 24.8522 18.8926C25.1733 18.9203 25.4806 19.0206 25.7464 19.1797C25.4426 19.114 25.1422 19.069 24.8487 19.0828C24.7037 19.0932 24.5587 19.1105 24.4172 19.1451C24.279 19.1831 24.1409 19.2316 24.0132 19.2973C23.7542 19.4253 23.5229 19.6086 23.3123 19.823C23.1051 20.0409 22.9187 20.2796 22.7495 20.539Z" fill="white"/>
<path d="M27.3763 21.8741C29.1924 22.296 30.1246 21.5351 31.9821 20.7741C33.8431 20.0132 35.1931 21.6216 35.1931 21.6216C35.0653 16.7099 32.7003 16.5404 32.279 16.5854C31.8578 16.6269 31.3503 17.4328 29.4064 16.6269C27.4626 15.821 26.7651 16.6892 26.7651 16.6892C26.7651 16.6892 27.1449 17.4086 27.3763 21.7495V21.8741Z" fill="white"/>
<path d="M24.9248 12.9707C25.1803 13.2128 25.4358 13.4446 25.6982 13.6659C25.9606 13.8908 26.2299 14.1018 26.5096 14.292C26.6477 14.3889 26.7892 14.4753 26.9343 14.5549C27.0793 14.6344 27.2277 14.7002 27.3727 14.7486C27.4107 14.759 27.4453 14.7693 27.4832 14.7797C27.5212 14.7901 27.5557 14.7935 27.5972 14.8005C27.6386 14.8074 27.6766 14.8108 27.718 14.8178C27.7594 14.8247 27.8009 14.8281 27.8423 14.835C28.008 14.8523 28.1772 14.8696 28.3499 14.8869C28.5225 14.9008 28.6951 14.9215 28.8678 14.9388C29.0404 14.9596 29.2165 14.9803 29.3926 15.008C29.7413 15.0633 30.0934 15.1429 30.4353 15.2536C30.7771 15.3643 31.1085 15.5095 31.4158 15.6963C31.7231 15.8831 32.0028 16.1079 32.2376 16.3708C31.9234 16.2082 31.6126 16.063 31.295 15.9488C30.9773 15.8347 30.6528 15.7447 30.3213 15.6756C30.1556 15.641 29.9899 15.6098 29.8241 15.5822C29.6584 15.558 29.4892 15.5303 29.3201 15.5095C29.1509 15.4888 28.9817 15.468 28.8125 15.4507C28.6433 15.43 28.4707 15.4127 28.2946 15.3885C28.122 15.3677 27.9459 15.3435 27.7698 15.3089C27.68 15.2916 27.5937 15.2743 27.5039 15.2501C27.4625 15.2397 27.4107 15.2259 27.3624 15.2121C27.3141 15.1982 27.2692 15.1809 27.2243 15.1636C26.8652 15.0184 26.5717 14.8005 26.2955 14.5687C26.0228 14.3335 25.7776 14.081 25.5497 13.8112C25.3219 13.5483 25.1112 13.2647 24.9248 12.9707Z" fill="white"/>
<path d="M8.86628 15.3128C8.86628 15.3128 7.76833 14.0849 6.0351 14.9739C4.30186 15.8628 4.04981 15.1849 3.33166 15.0154C2.6135 14.8459 0.417607 14.9739 0.162109 19.6295C0.162109 19.6295 2.10596 18.2737 3.50084 19.1626C4.89572 20.0515 6.92243 20.3905 7.59915 20.1345C7.59915 20.138 7.11233 17.6199 8.86628 15.3128Z" fill="white"/>
<path d="M9.70197 22.1541C9.70197 22.1541 9.40849 21.2721 8.91821 20.6806C8.42793 20.0926 7.98944 19.9923 7.7443 20.0926C7.49917 20.1895 7.49916 21.6145 8.52806 21.7598C9.55695 21.9085 9.70197 22.1541 9.70197 22.1541Z" fill="white"/>
<path d="M9.43277 20.221C9.30502 20.0965 9.17727 19.9754 9.03916 19.8682C8.90451 19.7575 8.76295 19.6607 8.61103 19.5811C8.45912 19.5015 8.30375 19.4358 8.13802 19.4047C7.97229 19.3701 7.79966 19.3667 7.62012 19.3874C7.70298 19.3494 7.7893 19.3217 7.87907 19.3079C7.96884 19.294 8.06206 19.2871 8.15528 19.2975C8.33827 19.3148 8.51781 19.3736 8.68009 19.46C8.84236 19.55 8.98737 19.6607 9.11512 19.7886C9.23942 19.9166 9.35336 20.0619 9.43277 20.221Z" fill="white"/>
<path d="M18.7135 35.2495C18.6099 35.8791 18.4304 36.4947 18.206 37.0966C18.092 37.3975 17.9608 37.6915 17.8158 37.9786C17.7433 38.1239 17.6674 38.2657 17.5845 38.4041C17.5051 38.5424 17.4188 38.6808 17.329 38.8157C16.9665 39.3518 16.5245 39.8464 15.9894 40.2373L15.8892 40.3099L15.7857 40.3791C15.7166 40.4275 15.6441 40.4656 15.575 40.5105C15.5025 40.5486 15.43 40.5935 15.3541 40.6281L15.2401 40.6835L15.1262 40.7319C14.8189 40.8633 14.4944 40.9567 14.1664 41.0121C13.5069 41.1227 12.8267 41.0743 12.188 40.9291C11.8669 40.8564 11.5492 40.763 11.2385 40.642C11.1591 40.6143 11.0831 40.5762 11.0072 40.5451C10.9312 40.5105 10.8553 40.4725 10.7793 40.4344L10.6688 40.3756L10.6136 40.3445L10.5583 40.3134L10.4513 40.2476L10.3443 40.1785L10.2925 40.1439L10.2407 40.1058L10.1371 40.0297C10.0715 39.9744 10.0024 39.9225 9.9403 39.8637C9.8747 39.8084 9.816 39.7461 9.75385 39.6838C9.72278 39.6527 9.69516 39.6216 9.66754 39.5905C9.63646 39.5593 9.60884 39.5247 9.58467 39.4936C9.52943 39.4279 9.47764 39.3587 9.42585 39.2895C9.37751 39.2169 9.32918 39.1477 9.28429 39.0716C9.19452 38.9229 9.11511 38.7707 9.04951 38.6116C8.91831 38.2934 8.83199 37.9613 8.78365 37.6258C8.73532 37.2903 8.72151 36.9548 8.73186 36.6227C8.75603 35.9586 8.88033 35.3118 9.0357 34.6857L9.15309 34.2222C9.1738 34.1462 9.19107 34.0701 9.20833 33.9974C9.22559 33.9248 9.24286 33.8487 9.24631 33.7933C9.24631 33.7864 9.24976 33.7795 9.24976 33.7726C9.24976 33.7691 9.24976 33.7622 9.24976 33.7588V33.7C9.24976 33.6584 9.25322 33.6169 9.25322 33.5754C9.25667 33.4924 9.26357 33.406 9.27048 33.3229C9.28774 33.1535 9.31536 32.9805 9.3637 32.811C9.38787 32.7245 9.41549 32.6381 9.45347 32.5551C9.48454 32.4824 9.51217 32.4132 9.53979 32.3406C9.59503 32.1988 9.64337 32.0535 9.6848 31.9082C9.72623 31.763 9.76076 31.6142 9.79183 31.4655C9.81945 31.3168 9.84017 31.168 9.85398 31.0159C9.86779 30.8671 9.8747 30.7149 9.87124 30.5627C9.87124 30.4866 9.86779 30.4105 9.86434 30.3379C9.86089 30.2618 9.85398 30.1823 9.84707 30.1062C9.81945 29.7983 9.77457 29.4939 9.6917 29.2138C9.67099 29.1446 9.64682 29.0754 9.6192 29.0132C9.60539 28.982 9.59158 28.9509 9.57431 28.9232C9.56741 28.9094 9.55705 28.8955 9.55015 28.8817L9.53633 28.861L9.51907 28.8333C9.4224 28.6811 9.34989 28.5254 9.28774 28.3698C9.1669 28.0585 9.08058 27.7437 9.00808 27.4255C8.86997 26.7925 8.78365 26.1561 8.72496 25.5162C8.69734 25.198 8.68007 24.8763 8.66972 24.5546C8.66626 24.4751 8.66626 24.3955 8.65936 24.3194C8.6559 24.2433 8.649 24.1638 8.63864 24.0877C8.62138 23.932 8.59721 23.7798 8.56268 23.6242C8.49708 23.3163 8.40041 23.0154 8.27956 22.7249C8.24849 22.6522 8.21742 22.5796 8.18979 22.5C8.16217 22.424 8.14146 22.3479 8.12074 22.2683C8.08276 22.1127 8.06205 21.9535 8.05859 21.7944C8.07931 21.9535 8.11384 22.1092 8.16217 22.2579C8.18634 22.334 8.21396 22.4067 8.24849 22.4793C8.27956 22.5519 8.31754 22.6177 8.35552 22.6903C8.50053 22.9774 8.62138 23.2748 8.71115 23.5861C8.75603 23.7418 8.79401 23.9009 8.82163 24.06C8.83544 24.1396 8.8458 24.2191 8.85616 24.3021C8.86652 24.3817 8.87342 24.4647 8.88033 24.5408C8.9114 24.8556 8.94593 25.1703 8.99427 25.4816C9.08404 26.1077 9.19452 26.7303 9.36025 27.3356C9.44311 27.6365 9.53633 27.934 9.65718 28.2107C9.71933 28.349 9.78493 28.4805 9.86434 28.5946L9.89886 28.6465C9.91268 28.6673 9.92649 28.688 9.93684 28.7053C9.96101 28.7468 9.98173 28.7849 10.0024 28.8264C10.0439 28.9094 10.075 28.9889 10.1026 29.072C10.2131 29.4005 10.2683 29.7257 10.3063 30.0508C10.3166 30.1338 10.3235 30.2134 10.3304 30.2964C10.3374 30.3794 10.3443 30.4624 10.3443 30.5489C10.3512 30.7149 10.3477 30.8844 10.3374 31.0504C10.327 31.2165 10.3063 31.3825 10.2787 31.5485C10.251 31.7145 10.2131 31.8771 10.1716 32.0362C10.1302 32.1988 10.0784 32.3579 10.0197 32.5136C9.99209 32.5896 9.96101 32.6692 9.92994 32.7453C9.90577 32.8076 9.88505 32.8733 9.86434 32.9425C9.82981 33.0774 9.80564 33.2226 9.79183 33.3679C9.78493 33.4405 9.78147 33.5166 9.77802 33.5893C9.77802 33.6273 9.77457 33.6654 9.77457 33.7034V33.7622L9.77112 33.8072C9.77112 33.821 9.76766 33.8349 9.76766 33.8487C9.75731 33.949 9.73659 34.032 9.71933 34.115C9.70206 34.198 9.68135 34.2741 9.66408 34.3537L9.55015 34.8172C9.40168 35.4259 9.2912 36.0382 9.26703 36.6469C9.24286 37.2557 9.31191 37.861 9.53633 38.4041C9.59158 38.539 9.65718 38.6704 9.72968 38.7949C9.76421 38.8572 9.80564 38.9194 9.84707 38.9782C9.89196 39.037 9.93339 39.0958 9.97828 39.1512C10.0024 39.1788 10.0232 39.2065 10.0473 39.2342C10.0715 39.2619 10.0957 39.2895 10.1198 39.3172C10.1716 39.3691 10.22 39.421 10.2752 39.4694C10.327 39.5213 10.3857 39.5662 10.4409 39.6147L10.5273 39.6804L10.5721 39.715L10.617 39.7461L10.7068 39.8084L10.8 39.8672L10.8483 39.8983L10.8967 39.926L10.9934 39.9813C11.059 40.0159 11.1246 40.0505 11.1936 40.0816C11.2627 40.1128 11.3283 40.1473 11.4008 40.175C11.6804 40.2926 11.9705 40.386 12.2708 40.4586C12.5678 40.5347 12.8682 40.5866 13.172 40.6074C13.4724 40.6316 13.7762 40.6281 14.0766 40.5866C14.6739 40.5105 15.2505 40.2892 15.758 39.9502L15.8064 39.9191L15.8547 39.8845L15.9479 39.8187C16.0066 39.7703 16.0722 39.7254 16.1309 39.6769C16.2518 39.5801 16.3623 39.4763 16.4762 39.3691C16.5867 39.2619 16.6937 39.1477 16.7938 39.0301C16.894 38.9125 16.9941 38.7915 17.0873 38.6669C17.4637 38.1689 17.7778 37.6189 18.0437 37.0447C18.1784 36.7576 18.2957 36.4636 18.4062 36.1661C18.534 35.8618 18.6307 35.5608 18.7135 35.2495Z" fill="white"/>
<path d="M13.9004 35.2566C12.9785 35.1148 12.7748 36.1351 12.7748 36.1351C12.7748 36.1351 12.723 35.0975 11.7908 35.132C10.8586 35.1632 9.91602 33.835 9.91602 33.835C10.0265 34.1048 10.5375 34.838 10.8241 35.0317C11.1106 35.2254 11.1417 35.1217 11.2695 35.4088C11.8461 36.7058 12.5435 36.8892 12.578 36.9791C12.616 37.069 12.6816 38.1724 12.6816 38.1724C12.6816 38.1724 12.868 37.0863 12.9164 36.9998C12.9647 36.9134 13.707 36.7058 14.3907 35.5955C14.5564 35.3292 14.5702 35.4295 14.874 35.2739C15.1779 35.1148 15.7648 34.4472 15.9064 34.1947C15.9064 34.1912 14.8257 35.3984 13.9004 35.2566Z" fill="white"/>
<path d="M2.04395 14.8248C2.16824 14.6657 2.31671 14.5274 2.47208 14.3959C2.62745 14.268 2.79663 14.1504 2.97271 14.0466C3.32488 13.8391 3.70813 13.6765 4.10519 13.5658C4.30544 13.5105 4.5057 13.469 4.71286 13.4344C4.76465 13.4274 4.81644 13.4205 4.86823 13.4136L5.0236 13.3963C5.12718 13.3859 5.2273 13.379 5.33088 13.3756C5.7383 13.3548 6.13881 13.3652 6.53586 13.3756C7.32653 13.3963 8.10338 13.424 8.85606 13.2822C9.2324 13.213 9.59838 13.1023 9.94365 12.9363C10.2924 12.7703 10.6204 12.5489 10.9277 12.2964C10.6963 12.625 10.4063 12.9155 10.0679 13.1507C9.72958 13.3859 9.34633 13.5589 8.94583 13.673C8.54877 13.7872 8.1379 13.8494 7.73049 13.8736C7.32307 13.9013 6.91911 13.8979 6.52205 13.8909C6.125 13.884 5.73139 13.8702 5.34469 13.8736C5.24802 13.8771 5.15135 13.8771 5.05467 13.8806L4.91311 13.8875C4.86477 13.8909 4.81989 13.8944 4.77155 13.8979C4.58165 13.9117 4.39176 13.9394 4.20531 13.9705C3.82897 14.0397 3.45609 14.14 3.09701 14.2818C2.72757 14.4305 2.3754 14.6 2.04395 14.8248Z" fill="white"/>
<path d="M9.03908 26.7476C9.00455 26.8721 8.96312 26.9966 8.91824 27.1211C8.87335 27.2422 8.82502 27.3667 8.77668 27.4878C8.67655 27.7299 8.56952 27.9685 8.45213 28.2003C8.21735 28.6672 7.95149 29.1204 7.66147 29.5562C7.07797 30.4278 6.38053 31.2268 5.59677 31.9359C5.39652 32.1088 5.19972 32.2818 4.9891 32.4409C4.78194 32.6069 4.56443 32.7557 4.35036 32.9079L4.0189 33.1223L3.93604 33.1742C3.90842 33.1915 3.8808 33.2088 3.85318 33.2261L3.68054 33.3229L3.50791 33.4198C3.44921 33.4509 3.39397 33.4855 3.33528 33.5132L2.9831 33.693L2.89679 33.738L2.80702 33.7795L2.62748 33.859L2.44794 33.9386C2.41687 33.9524 2.38925 33.9663 2.35817 33.9767L2.26495 34.0112L1.89551 34.1496L1.80229 34.1842L1.70907 34.2153L1.52263 34.2741L1.33618 34.3329L1.24296 34.3606C1.21189 34.371 1.18081 34.3779 1.14629 34.3848C1.01854 34.4159 0.894241 34.4471 0.766492 34.4782C0.638743 34.5093 0.510995 34.5335 0.383246 34.5543C0.255497 34.575 0.127749 34.5993 0 34.6165C0.120843 34.5681 0.241687 34.5232 0.36253 34.4782L0.545521 34.4125L0.590406 34.3952L0.635291 34.3779L0.72506 34.3398C0.842451 34.288 0.963294 34.243 1.08068 34.1946C1.11176 34.1807 1.13938 34.1703 1.17045 34.1565L1.25677 34.115L1.43286 34.0355L1.60894 33.9559L1.69526 33.9178L1.78158 33.8729L2.12339 33.6999L2.20971 33.6584L2.29257 33.6135L2.46175 33.5201L2.63093 33.4267L2.7138 33.3817L2.79666 33.3333L3.12466 33.1361C3.17991 33.105 3.2317 33.0704 3.28694 33.0358L3.44576 32.9321L3.60458 32.8283C3.65637 32.7937 3.70816 32.7557 3.75995 32.7211L4.07069 32.5032C4.27095 32.3475 4.47811 32.2022 4.67146 32.0362C4.87171 31.8806 5.06161 31.7111 5.25151 31.545C6.00419 30.8671 6.70163 30.12 7.33346 29.3141C7.65111 28.9128 7.94804 28.4978 8.23461 28.0689C8.51773 27.6434 8.79049 27.2041 9.03908 26.7476Z" fill="white"/>
<path d="M22.8496 35.5814C22.4802 36.415 22.1107 37.2417 21.762 38.0752C21.5894 38.4903 21.4202 38.9088 21.2579 39.3274L20.7815 40.5864C20.6261 41.0084 20.4673 41.4269 20.3326 41.8593C20.198 42.2882 20.084 42.7275 20.015 43.1737C20.0012 43.2843 19.9839 43.3985 19.9735 43.5092C19.9632 43.6199 19.9563 43.734 19.9459 43.8447C19.939 43.9588 19.9287 44.073 19.9218 44.1871C19.9183 44.2148 19.9183 44.2459 19.9149 44.2736L19.9045 44.3601L19.8872 44.533C19.832 44.9896 19.7526 45.4462 19.6455 45.8958C19.4384 46.7986 19.1104 47.6668 18.7064 48.4969C18.5062 48.912 18.2921 49.3201 18.0642 49.7213C17.8363 50.1226 17.5912 50.51 17.3357 50.8905C16.8178 51.648 16.255 52.3743 15.6474 53.0626C15.3435 53.4051 15.0328 53.744 14.7117 54.0657C14.3906 54.3909 14.0557 54.7022 13.707 54.9996L13.6655 54.9581C14.7704 53.5088 15.8373 52.0526 16.8144 50.5411C17.0595 50.1641 17.3012 49.7836 17.536 49.4031C17.7707 49.0192 17.9986 48.6353 18.2127 48.2409C18.4302 47.8466 18.6236 47.4454 18.8169 47.0407C18.9136 46.8401 19.0034 46.6326 19.0931 46.4285L19.2209 46.1172C19.2623 46.0134 19.3003 45.9062 19.3417 45.8024C19.4936 45.3804 19.6214 44.9481 19.6939 44.5053L19.7215 44.3393C19.7319 44.284 19.7388 44.2286 19.7422 44.1733C19.7526 44.0626 19.7629 43.9519 19.7733 43.8378L19.7975 43.4953C19.8113 43.3812 19.8182 43.267 19.832 43.1529C19.8838 42.6963 19.9425 42.2432 20.0219 41.7866C20.1013 41.3335 20.1945 40.8804 20.3223 40.4377C20.4466 39.9949 20.6019 39.5591 20.778 39.1371C20.9541 38.7117 21.1475 38.2966 21.3546 37.885C21.5618 37.4769 21.7862 37.0756 22.0244 36.6848C22.2661 36.2939 22.5182 35.9134 22.8047 35.5537L22.8496 35.5814Z" fill="white"/>
<path d="M10.5757 12.6248C10.6413 12.5487 10.7069 12.4691 10.769 12.3896C10.8312 12.31 10.8933 12.2305 10.952 12.1474C11.0694 11.9849 11.1764 11.8154 11.2628 11.6424L11.2938 11.5767L11.3249 11.511C11.3456 11.4695 11.3629 11.4211 11.3836 11.3726C11.4216 11.2793 11.463 11.1824 11.5079 11.0856C11.6011 10.8919 11.7116 10.7016 11.8532 10.5287C11.9222 10.4422 11.9982 10.3592 12.081 10.2831C12.1639 10.207 12.2502 10.1378 12.3434 10.0721C12.5264 9.94412 12.7267 9.84382 12.9339 9.76772C13.3447 9.61207 13.7763 9.55327 14.201 9.54981C14.4116 9.54981 14.6257 9.55673 14.8363 9.59132C15.0469 9.62245 15.2575 9.66741 15.4612 9.74351C15.6649 9.81614 15.8583 9.91645 16.0343 10.0375C16.1207 10.0963 16.207 10.162 16.2864 10.2312C16.3658 10.3004 16.4418 10.3696 16.5177 10.4387C16.6662 10.5771 16.8147 10.7155 16.9769 10.8227C17.1392 10.9299 17.3222 10.9991 17.5121 11.0302C17.6088 11.0475 17.7054 11.051 17.8021 11.051C17.8988 11.051 17.992 11.0406 18.0818 11.0198C18.2613 10.9749 18.427 10.8884 18.579 10.7743C18.7309 10.6601 18.8759 10.5252 19.0175 10.3834C19.1625 10.245 19.3109 10.0963 19.4732 9.96142C19.6355 9.82306 19.815 9.69508 20.0084 9.58786C20.2017 9.48063 20.4158 9.39762 20.6333 9.34228C20.8508 9.28693 21.0752 9.25926 21.2962 9.2558C21.5172 9.25234 21.7382 9.26964 21.9522 9.30769C22.0593 9.32498 22.1663 9.34919 22.2699 9.37341C22.3734 9.40108 22.477 9.42875 22.5806 9.45988C22.6842 9.49101 22.7843 9.5256 22.8844 9.56364C22.9846 9.60169 23.0847 9.6432 23.1848 9.69162C23.3816 9.78501 23.5715 9.8957 23.7511 10.0237C23.9306 10.1551 24.0963 10.3038 24.2448 10.4699C24.3933 10.6394 24.5175 10.8261 24.6142 11.0233C24.7109 11.2205 24.7869 11.428 24.8352 11.639C24.8835 11.85 24.9181 12.0575 24.9353 12.265L24.9629 12.5694C24.9733 12.6663 24.9837 12.7666 25.0078 12.8496C25.0147 12.8703 25.0216 12.8911 25.0285 12.9084L25.0355 12.9222C25.0389 12.9257 25.0389 12.9292 25.0424 12.9361L25.0631 12.9672C25.0907 13.0087 25.1183 13.0502 25.1494 13.0917C25.2081 13.1747 25.2668 13.2543 25.3289 13.3338C25.4532 13.493 25.5844 13.6486 25.7225 13.7973L25.688 13.8354C25.5292 13.7039 25.3773 13.5656 25.2323 13.4203C25.1597 13.3477 25.0907 13.2716 25.0216 13.192C24.9871 13.154 24.9526 13.1125 24.9215 13.0744L24.8973 13.0433C24.8904 13.0329 24.8766 13.0191 24.8697 13.0052C24.8525 12.9776 24.8352 12.9534 24.8248 12.9257C24.773 12.8185 24.7454 12.7147 24.7213 12.6144L24.6488 12.3135C24.6246 12.2166 24.6004 12.1198 24.5762 12.0229C24.5486 11.9295 24.521 11.8361 24.4865 11.7427C24.4209 11.5629 24.338 11.3899 24.2413 11.2308C24.1447 11.0717 24.0273 10.9265 23.8961 10.795C23.6337 10.5356 23.3126 10.335 22.9604 10.1862C22.7878 10.1102 22.6048 10.0479 22.4183 9.99255C22.3734 9.97871 22.3251 9.96488 22.2802 9.95104L22.1387 9.91645C22.0454 9.89224 21.9522 9.87149 21.859 9.85419C21.4861 9.78501 21.1063 9.76426 20.7507 9.8369C20.5712 9.87149 20.3985 9.93375 20.2328 10.0133C20.0671 10.0929 19.9048 10.1966 19.7494 10.3108C19.4318 10.5356 19.1314 10.8227 18.7516 11.0406C18.5617 11.1478 18.3511 11.2343 18.1267 11.2585C18.0162 11.2723 17.9057 11.2758 17.7952 11.2654C17.6882 11.255 17.5811 11.2412 17.4776 11.217C17.267 11.1686 17.0667 11.0786 16.8906 10.961C16.7145 10.8434 16.5626 10.6982 16.4107 10.5667C16.2588 10.4318 16.1034 10.3108 15.9308 10.2139C15.8445 10.1655 15.7581 10.1274 15.6684 10.0929C15.5786 10.0617 15.4854 10.0341 15.3887 10.0133C15.0089 9.93375 14.6188 9.95104 14.2252 9.98563C13.835 10.0237 13.4518 10.0859 13.0961 10.2105C12.7405 10.335 12.4194 10.5252 12.1674 10.7985C12.0396 10.9334 11.9291 11.089 11.829 11.255C11.7772 11.3381 11.7289 11.4245 11.6805 11.5145C11.6564 11.5594 11.6322 11.6044 11.6011 11.6494L11.5597 11.7185L11.5148 11.7843C11.3905 11.9607 11.2524 12.1198 11.1005 12.265C10.9486 12.4103 10.7897 12.5418 10.6206 12.6594L10.5757 12.6248Z" fill="white"/>
<path d="M15.5542 9.94088C15.2607 8.80636 14.9396 7.68914 14.5529 6.60305C14.3595 6.06 14.1455 5.52387 13.9107 5.00504C13.6725 4.4862 13.4101 3.9812 13.1166 3.49696C12.9681 3.25484 12.8127 3.02309 12.6401 2.79826C12.4709 2.57343 12.2845 2.36244 12.0808 2.16874C11.9807 2.07189 11.8702 1.98196 11.7597 1.89549C11.7044 1.85398 11.6457 1.80902 11.587 1.77443L11.4973 1.71563L11.4041 1.66028C11.1589 1.51155 10.9034 1.37665 10.641 1.25559C10.1162 1.01693 9.56033 0.843985 8.9941 0.743677C8.85254 0.719465 8.71098 0.698711 8.56597 0.681417C8.42441 0.667581 8.27939 0.657204 8.13783 0.650287C7.85126 0.636451 7.56815 0.650287 7.28848 0.684876C7.15037 0.70217 7.01227 0.729841 6.88106 0.760971C6.81546 0.778266 6.75332 0.799019 6.69462 0.819773C6.667 0.830149 6.63593 0.843985 6.61176 0.854362C6.58759 0.868197 6.56687 0.878574 6.55306 0.888951V0.899327C6.55306 0.899327 6.55306 0.899327 6.55306 0.902786H6.55651C6.55651 0.902786 6.56342 0.895868 6.56687 0.888951C6.56687 0.888951 6.57032 0.885492 6.57032 0.882033C6.57378 0.878574 6.57378 0.875115 6.57723 0.871656C6.57723 0.868197 6.58068 0.864738 6.58068 0.861279C6.58068 0.85782 6.58414 0.850903 6.58759 0.847444C6.59104 0.837067 6.59104 0.82669 6.59104 0.812855C6.59104 0.799019 6.59104 0.785184 6.58759 0.771348C6.58759 0.760971 6.58414 0.747136 6.57723 0.736759C6.57378 0.729841 6.57378 0.726382 6.57032 0.722923C6.56687 0.719465 6.56687 0.716006 6.56342 0.712547C6.55997 0.709088 6.55997 0.705629 6.55651 0.70217C6.55306 0.698711 6.55306 0.698711 6.55306 0.695252C6.54961 0.691793 6.54616 0.688334 6.5427 0.684876C6.53925 0.681417 6.53925 0.681417 6.5358 0.677958H6.53925C6.5427 0.677958 6.54616 0.681417 6.54961 0.681417L6.58413 0.688335L6.68426 0.712547C6.82237 0.743677 6.96393 0.774807 7.10894 0.809396C7.68554 0.937375 8.26904 1.11724 8.82492 1.39395C9.10113 1.53231 9.37044 1.69487 9.61903 1.88857C9.86762 2.08227 10.0989 2.3071 10.2992 2.56306C10.496 2.81901 10.6617 3.10264 10.7791 3.40357C10.8067 3.47966 10.8378 3.55576 10.862 3.6284C10.8862 3.70103 10.9069 3.77367 10.931 3.84631L10.9932 4.06422C11.0139 4.13685 11.0312 4.20949 11.0519 4.28213C11.1969 4.86322 11.3039 5.44778 11.3902 6.03233C11.4766 6.61688 11.5422 7.20144 11.5905 7.78945C11.6388 8.37746 11.6699 8.96547 11.6768 9.55349C11.6803 9.84749 11.6768 10.145 11.663 10.439C11.6596 10.5116 11.6561 10.5877 11.6492 10.6603C11.6457 10.733 11.6354 10.8091 11.6285 10.8817C11.6181 10.9543 11.6112 11.0304 11.594 11.1031C11.5801 11.1757 11.5629 11.2518 11.5353 11.3244L11.4731 11.3037C11.4973 11.1688 11.4869 11.0201 11.4835 10.8782C11.4766 10.733 11.4628 10.5877 11.4489 10.4459C11.4213 10.1553 11.3833 9.86824 11.3454 9.58116C11.266 9.00352 11.1762 8.42934 11.0795 7.85517C10.9828 7.28099 10.8793 6.71027 10.7653 6.14301C10.6514 5.57575 10.5271 5.01195 10.3786 4.46199C10.3579 4.39281 10.3406 4.32363 10.3234 4.25792L10.2647 4.05384C10.244 3.98466 10.2232 3.91894 10.2025 3.85322C10.1922 3.81864 10.1784 3.79096 10.168 3.75983L10.1335 3.66644C10.0403 3.42086 9.91251 3.19258 9.75714 2.98158C9.60177 2.77059 9.42223 2.57689 9.21507 2.40395C9.00791 2.231 8.78348 2.07881 8.5418 1.94737C8.30011 1.81593 8.04807 1.69833 7.78566 1.59802C7.52326 1.49772 7.25395 1.40778 6.97774 1.32131C6.83963 1.27635 6.70153 1.23484 6.55651 1.18987C6.52199 1.1795 6.48401 1.16566 6.44603 1.15183L6.43222 1.14491L6.41495 1.13799C6.40114 1.13453 6.39079 1.12761 6.37697 1.12416L6.339 1.1034C6.32519 1.09648 6.30792 1.08611 6.29411 1.07573C6.27685 1.0619 6.25958 1.05152 6.24232 1.03768C6.23196 1.02731 6.22161 1.02039 6.2147 1.01001C6.21125 1.00309 6.20779 0.999635 6.20089 0.992717C6.19744 0.9858 6.19053 0.978882 6.18708 0.971964C6.18363 0.965046 6.17672 0.958128 6.17327 0.951211C6.16982 0.944293 6.16636 0.937375 6.15946 0.926998C6.15255 0.906245 6.14565 0.885492 6.13874 0.868197C6.13529 0.847444 6.13184 0.823231 6.13184 0.799019C6.13184 0.774807 6.13529 0.757512 6.14219 0.736759C6.14565 0.726382 6.1491 0.716006 6.1491 0.709088C6.15255 0.70217 6.156 0.695252 6.15946 0.684876C6.16636 0.67104 6.17672 0.653746 6.18363 0.643369C6.19744 0.622616 6.2147 0.601862 6.22851 0.588027L6.24923 0.567273C6.25613 0.560355 6.26304 0.556896 6.26994 0.549979L6.29066 0.536143L6.30792 0.525766C6.35626 0.494636 6.40114 0.473883 6.44258 0.460047C6.48401 0.442753 6.52544 0.432376 6.56687 0.418541C6.64628 0.397787 6.72569 0.380493 6.80511 0.370116C6.96048 0.345904 7.11239 0.335527 7.26431 0.332068C7.87198 0.318233 8.46239 0.401246 9.03898 0.529225C9.61558 0.657204 10.1784 0.840526 10.7273 1.0619C10.862 1.11724 11.0001 1.17258 11.1347 1.23484C11.2038 1.26597 11.2694 1.2971 11.3385 1.32823C11.4041 1.35936 11.4731 1.39049 11.5387 1.42508L11.6388 1.4735L11.739 1.52539C11.808 1.55998 11.8702 1.59802 11.9358 1.63607C12.0635 1.71563 12.1913 1.79864 12.3121 1.88857C12.5572 2.06843 12.7817 2.27251 12.9923 2.49388C13.2029 2.71179 13.3962 2.94699 13.5723 3.19258C13.9245 3.68374 14.2111 4.21641 14.4459 4.76637C14.6841 5.31288 14.8809 5.87668 15.0432 6.4474C15.2054 7.01811 15.3366 7.59575 15.4333 8.17684C15.53 8.75794 15.6025 9.34595 15.6198 9.93396L15.5542 9.94088Z" fill="white"/>
<path d="M19.8013 9.73343C19.8876 9.38408 19.9981 9.04511 20.112 8.70614C20.2294 8.36717 20.3537 8.03165 20.4883 7.6996C20.7577 7.03549 21.0649 6.38522 21.4068 5.7557C21.5759 5.43748 21.7589 5.12964 21.9488 4.8218C22.1422 4.51742 22.3424 4.21649 22.5565 3.92249C22.9812 3.33793 23.4576 2.78105 23.9997 2.29335C24.2725 2.05122 24.559 1.82294 24.8629 1.61886C25.1667 1.41479 25.4878 1.23492 25.8227 1.08273C25.9056 1.04469 25.9919 1.0101 26.0748 0.975508C26.1611 0.944378 26.2439 0.90633 26.3337 0.878659L26.4649 0.833693L26.5927 0.792186C26.679 0.764515 26.7653 0.740303 26.8516 0.716091C27.0242 0.667666 27.1969 0.615783 27.3695 0.570817C27.4558 0.546605 27.5421 0.525851 27.6285 0.501639L27.8874 0.439379C28.5814 0.273352 29.2857 0.145373 30.0004 0.069277C30.7151 9.90853e-05 31.4333 -0.0344899 32.1618 0.0485236C32.3448 0.069277 32.5278 0.100407 32.7108 0.148832C32.804 0.173044 32.8972 0.204174 32.9905 0.242222C33.0837 0.283729 33.1804 0.332153 33.2805 0.422084C33.3288 0.470509 33.3806 0.532769 33.4117 0.629618C33.4186 0.65383 33.4255 0.678043 33.4255 0.705714C33.4289 0.733385 33.4289 0.757597 33.4255 0.785268C33.4255 0.81294 33.4186 0.837152 33.4117 0.861364C33.4048 0.885576 33.3944 0.90633 33.3875 0.927083C33.3461 1.0101 33.2977 1.06198 33.2494 1.10695C33.2252 1.1277 33.2011 1.14845 33.1769 1.16575C33.1665 1.17266 33.1527 1.18304 33.1424 1.18996L33.1044 1.21071L33.0284 1.25222C33.0043 1.26605 32.9801 1.27297 32.9559 1.28681L32.8834 1.31794C32.8593 1.32831 32.8351 1.33523 32.8109 1.34215L32.7384 1.36636C32.7142 1.37328 32.6901 1.3802 32.6659 1.38366C32.6176 1.39403 32.5692 1.40787 32.5243 1.41825C32.3379 1.45975 32.1584 1.48397 31.9788 1.50818L31.454 1.57736C31.1088 1.62578 30.7738 1.68458 30.4527 1.77797C30.1316 1.8679 29.8209 1.99242 29.5343 2.14807C29.2478 2.30372 28.9854 2.50088 28.7506 2.72571C28.5158 2.95054 28.3086 3.2065 28.1256 3.48321C27.9392 3.75646 27.7907 4.06084 27.6492 4.36522C27.5836 4.52088 27.5145 4.67653 27.4593 4.83909L27.373 5.08122L27.2901 5.33372C27.1796 5.66923 27.0691 6.00474 26.9621 6.34025C26.748 7.01474 26.5443 7.68922 26.3475 8.37063L26.0506 9.39446L25.9021 9.90638C25.8503 10.0759 25.7986 10.2488 25.7468 10.4183C25.6397 10.7607 25.5258 11.1032 25.3842 11.4352C25.3117 11.6012 25.2289 11.7638 25.1322 11.9195C25.0355 12.0751 24.9181 12.2204 24.7835 12.338L24.7351 12.293C24.8456 12.1581 24.9319 12.0059 25.0044 11.8503C25.0769 11.6912 25.1322 11.5286 25.1805 11.3591C25.2323 11.1931 25.2737 11.0201 25.3117 10.8507C25.3497 10.6777 25.3877 10.5082 25.4222 10.3318L25.6294 9.28723C25.6984 8.93788 25.7675 8.58854 25.8434 8.23919C25.9954 7.54049 26.1611 6.84525 26.3475 6.15693C26.3924 5.98399 26.4407 5.81104 26.4891 5.64156C26.5409 5.46861 26.5892 5.29913 26.641 5.12618L26.717 4.87022C26.7446 4.78375 26.7757 4.69382 26.8033 4.60735C26.8585 4.43094 26.931 4.258 27.0001 4.08505C27.0346 3.99858 27.076 3.91557 27.1175 3.8291L27.1762 3.70112C27.1969 3.65961 27.2211 3.6181 27.2418 3.5766C27.2867 3.49358 27.3315 3.41057 27.3799 3.33102C27.4317 3.25146 27.48 3.17191 27.5318 3.09235C27.7459 2.77759 27.991 2.48013 28.2741 2.22071C28.5572 1.96129 28.8783 1.73992 29.2201 1.56352C29.562 1.39058 29.9245 1.2626 30.287 1.17266C30.6495 1.08273 31.019 1.03085 31.3781 0.996261C31.5576 0.978967 31.7371 0.965131 31.9132 0.947836C32.0893 0.934001 32.2619 0.920165 32.4242 0.895953C32.5865 0.871741 32.7419 0.837152 32.8558 0.78181L32.8765 0.771433C32.8834 0.767974 32.8903 0.764515 32.8972 0.761056C32.911 0.754138 32.9214 0.747221 32.9318 0.740303C32.949 0.726467 32.9628 0.712632 32.9628 0.716091C32.9628 0.716091 32.9628 0.719549 32.9628 0.723008C32.9594 0.726467 32.9628 0.729926 32.9628 0.733385C32.9628 0.736844 32.9628 0.743762 32.9628 0.747221C32.9628 0.750679 32.9663 0.754138 32.9663 0.757597C32.9732 0.767974 32.9697 0.757597 32.9559 0.740303C32.9421 0.723008 32.918 0.705714 32.8938 0.68496C32.8662 0.667666 32.8351 0.646913 32.804 0.629618C32.7384 0.595029 32.6625 0.563899 32.5865 0.536228C32.4311 0.480886 32.2654 0.43592 32.0997 0.401331C31.7648 0.335612 31.416 0.294105 31.0673 0.28027C30.8912 0.273352 30.7186 0.269893 30.5425 0.269893C30.3664 0.273352 30.1903 0.28027 30.0177 0.294105C29.3168 0.34253 28.6194 0.463591 27.9392 0.650371C27.5974 0.743762 27.2625 0.850987 26.9345 0.975508C26.8516 1.00664 26.7688 1.03777 26.6893 1.07236L26.5685 1.12078L26.4511 1.17266C26.3717 1.20725 26.2957 1.2453 26.2163 1.28335C26.1404 1.3214 26.0644 1.3629 25.9884 1.40787C25.6915 1.58081 25.4084 1.77797 25.1425 1.99588C24.8767 2.21379 24.6212 2.449 24.3795 2.69458C24.1378 2.94016 23.903 3.19612 23.6786 3.46245C23.4542 3.72533 23.2367 3.99858 23.0261 4.27529C22.6083 4.83218 22.2181 5.41673 21.8522 6.01512C21.4862 6.61351 21.1409 7.22919 20.8094 7.85525C20.6437 8.16655 20.4849 8.48131 20.3261 8.79953C20.1673 9.11775 20.0119 9.43597 19.8634 9.75764L19.8013 9.73343Z" fill="white"/>
<path d="M17.1701 40.8601C17.1701 40.8601 17.07 41.0469 17.253 42.8421C17.436 44.6338 18.0712 47.3387 15.8892 50.1334C15.8892 50.1334 16.8594 48.4005 16.4347 46.1834C16.01 43.9662 16.0273 42.5965 16.666 41.1991C16.6626 41.1991 16.6557 40.7391 17.1701 40.8601Z" fill="white"/>
<path d="M16.2411 41.2402C16.2411 41.2402 16.3689 41.3475 16.1859 41.804C15.9028 42.5096 15.4263 43.9001 15.5506 44.9931C15.6715 46.0861 16.217 48.1234 15.6715 49.2476C15.6715 49.2476 15.5817 47.5147 15.157 46.4528C14.7323 45.3909 14.4976 43.6338 15.6507 41.7487" fill="white"/>
<path d="M15.0987 41.9183C15.1608 42.2538 15.1159 42.6308 14.9053 43.0251C14.6947 43.4195 14.1457 44.6335 14.2977 45.7888C14.4496 46.9441 14.8121 47.916 14.6913 48.0059C14.5704 48.0959 13.2377 45.685 13.4483 44.0766C13.6589 42.4683 14.567 42.4164 14.598 41.9633C14.6291 41.5101 15.0987 41.9183 15.0987 41.9183Z" fill="white"/>
</svg>
