<svg width="153" height="55" viewBox="0 0 153 55" fill="none" xmlns="http://www.w3.org/2000/svg">
<path d="M46.187 31.5H47.825V28.014H50.289C52.235 28.014 53.341 26.67 53.341 25.088C53.341 23.506 52.249 22.162 50.289 22.162H46.187V31.5ZM51.661 25.088C51.661 25.984 50.989 26.572 50.065 26.572H47.825V23.604H50.065C50.989 23.604 51.661 24.192 51.661 25.088ZM57.7846 31.5H59.4226V22.162H57.7846V31.5ZM70.7316 31.5H72.6916L69.2056 26.698L72.4816 22.162H70.5076L68.1136 25.592L65.7056 22.162H63.7456L67.0356 26.712L63.5356 31.5H65.4956L68.1136 27.846L70.7316 31.5ZM76.8235 31.5H83.2215V30.058H78.4615V27.468H83.1235V26.026H78.4615V23.604H83.2215V22.162H76.8235V31.5ZM87.9836 31.5H93.7376V30.058H89.6216V22.162H87.9836V31.5ZM104.552 26.838C104.552 29.764 106.75 31.682 109.452 31.682C111.076 31.682 112.378 31.01 113.302 29.988V26.488H108.878V27.93H111.664V29.386C111.244 29.778 110.404 30.226 109.452 30.226C107.604 30.226 106.232 28.798 106.232 26.838C106.232 24.878 107.604 23.464 109.452 23.464C110.502 23.464 111.384 24.01 111.874 24.71L113.218 23.954C112.462 22.876 111.272 22.008 109.452 22.008C106.75 22.008 104.552 23.912 104.552 26.838ZM117.667 26.838C117.667 29.624 119.641 31.668 122.441 31.668C125.241 31.668 127.215 29.624 127.215 26.838C127.215 24.052 125.241 22.008 122.441 22.008C119.641 22.008 117.667 24.052 117.667 26.838ZM125.535 26.838C125.535 28.756 124.317 30.212 122.441 30.212C120.551 30.212 119.347 28.756 119.347 26.838C119.347 24.906 120.551 23.464 122.441 23.464C124.317 23.464 125.535 24.906 125.535 26.838ZM146.598 31.5H148.236V23.604H151.064V22.162H143.77V23.604H146.598V31.5Z" fill="#333333"/>
<path d="M138.48 31.5H140.272L136.604 22.162H134.56L130.892 31.5H132.684L133.37 29.708H137.794L138.48 31.5ZM135.582 23.548L137.332 28.266H133.832L135.582 23.548Z" fill="#EE4540"/>
<path d="M27.0482 17.6576C27.207 18.3355 27.314 19.0273 27.3969 19.7191C27.4383 20.065 27.4694 20.4143 27.4901 20.7637C27.5143 21.113 27.5281 21.4624 27.5315 21.8117C27.5419 22.5139 27.5108 23.216 27.4176 23.9217C27.3727 24.2745 27.3071 24.6238 27.2208 24.9732L27.1517 25.2326C27.1241 25.319 27.0965 25.4055 27.0689 25.4885L27.0482 25.5543L27.024 25.6165L26.9757 25.7445C26.9584 25.786 26.9446 25.8275 26.9239 25.8725L26.8686 25.997L26.8134 26.1215C26.7961 26.163 26.772 26.2045 26.7478 26.2426L26.6822 26.3636L26.62 26.4778C26.5786 26.5504 26.5372 26.6196 26.4992 26.6957C26.4612 26.7683 26.4232 26.8444 26.3887 26.9171C26.2437 27.218 26.1298 27.5327 26.0365 27.8579C25.8466 28.5082 25.7431 29.1965 25.6429 29.8813C25.5428 30.5697 25.4392 31.2614 25.2424 31.9359C25.0456 32.6104 24.7694 33.271 24.3896 33.8694C24.2998 34.0216 24.1928 34.1669 24.0927 34.3122C24.0409 34.3848 23.9856 34.454 23.9304 34.5232L23.8475 34.6304L23.7612 34.7307L23.5886 34.9348L23.4056 35.1285L23.3124 35.2253C23.2813 35.2565 23.2502 35.2876 23.2192 35.3187L23.0362 35.5055C22.5424 35.9967 22.028 36.4705 21.5032 36.9271C20.9784 37.3871 20.4398 37.8299 19.8977 38.2622L19.0898 38.9056C18.9551 39.0128 18.8239 39.12 18.6962 39.2273C18.5684 39.3345 18.4441 39.4452 18.3198 39.5559C18.199 39.6665 18.085 39.7807 17.978 39.9018C17.871 40.0194 17.7743 40.1439 17.688 40.2719L17.6569 40.3203L17.6258 40.3687L17.5568 40.4794L17.5154 40.5451L17.4946 40.5762L17.4705 40.6074L17.3772 40.7284C17.2495 40.8806 17.1079 41.0121 16.9629 41.1331C16.3725 41.607 15.6889 41.9045 14.9707 42.0532C14.6117 42.1293 14.2422 42.1535 13.8762 42.1293L13.7381 42.1189C13.6933 42.1154 13.6484 42.1085 13.6 42.1016C13.5551 42.0947 13.5103 42.0912 13.4654 42.0809L13.3307 42.0532C13.1512 42.0151 12.9751 41.9563 12.8059 41.8872C12.4676 41.7523 12.1603 41.5447 11.8979 41.2957C11.6389 41.0466 11.4283 40.7561 11.2626 40.4483L11.3178 40.4137C11.5284 40.6869 11.7667 40.9325 12.036 41.1297C12.3053 41.3268 12.6022 41.479 12.9164 41.5689C13.0752 41.6139 13.234 41.6485 13.3963 41.6658L13.5172 41.6796C13.5586 41.6831 13.6 41.6831 13.638 41.6865C13.6794 41.6865 13.7174 41.6935 13.7589 41.6935H13.8797C14.2042 41.6865 14.5288 41.6347 14.843 41.5447C15.1572 41.4548 15.461 41.3337 15.7476 41.185C16.0342 41.0363 16.3035 40.8495 16.5382 40.6454C16.6522 40.5382 16.7592 40.4275 16.8524 40.3134L16.9146 40.2234L16.9319 40.2027L16.9457 40.1785L16.9733 40.1335L16.9871 40.1127C16.9905 40.1058 16.9975 40.0989 17.0009 40.0885L17.0354 40.0263L17.07 39.964L17.1079 39.9018C17.2115 39.7392 17.3255 39.587 17.4463 39.4452C17.5671 39.3034 17.6983 39.1719 17.8261 39.0474C18.0885 38.7984 18.3613 38.5735 18.6375 38.3556C18.9137 38.1377 19.1864 37.9267 19.4627 37.7192C20.0116 37.3007 20.5572 36.8856 21.0923 36.4498C21.6275 36.0174 22.1454 35.5678 22.6667 35.1181L22.8601 34.9486C22.8912 34.9209 22.9257 34.8933 22.9568 34.8621L23.05 34.7757L23.2364 34.6062L23.416 34.4263L23.5057 34.3364L23.592 34.243L23.7612 34.0562C23.8683 33.9248 23.9787 33.8003 24.0789 33.6619C24.1825 33.527 24.2757 33.3852 24.3689 33.2468L24.5001 33.0289C24.5208 32.9943 24.5415 32.9563 24.5622 32.9182L24.6209 32.8076C24.6417 32.7695 24.6624 32.7315 24.6796 32.6934L24.7349 32.5793C24.7694 32.5032 24.8074 32.4271 24.8385 32.3475C24.9041 32.1919 24.9628 32.0293 25.018 31.8702C25.2321 31.2199 25.3425 30.5385 25.4185 29.8537C25.4979 29.1653 25.5393 28.4701 25.6706 27.7714C25.7362 27.4221 25.8225 27.0762 25.9468 26.7337C25.9778 26.6507 26.0124 26.5642 26.0469 26.4812C26.0814 26.3982 26.1228 26.3152 26.1574 26.2322L26.185 26.1699L26.2092 26.1146L26.261 26.0039C26.2955 25.9313 26.3231 25.8552 26.3542 25.7756C26.4716 25.4678 26.5682 25.153 26.6407 24.8244C26.6511 24.7829 26.6615 24.7449 26.6684 24.7034L26.696 24.5788C26.7133 24.4958 26.7305 24.4163 26.7443 24.3333L26.7892 24.0842L26.8272 23.8352C26.8755 23.4997 26.917 23.1642 26.9446 22.8217C26.9515 22.7353 26.9584 22.6522 26.9653 22.5658C26.9722 22.4793 26.9791 22.3963 26.9826 22.3098C26.9929 22.1403 27.0033 21.9674 27.0102 21.7979C27.0654 20.4282 27.0344 19.0481 26.9722 17.6611L27.0482 17.6576Z" fill="#333333"/>
<path d="M22.8532 21.4524C22.6529 21.653 22.6426 22.0023 22.9809 21.8743C23.3193 21.7464 23.7854 21.7913 24.2066 21.8743C24.6278 21.9574 26.0573 21.8294 26.2782 20.8574C26.4888 19.927 26.5303 19.8855 26.5303 19.8855C26.5303 19.8855 25.9882 19.9131 25.5152 19.716C25.0076 19.505 23.8234 19.716 23.3193 20.6464C22.9119 21.3936 23.0224 21.2829 22.8532 21.4524Z" fill="#333333"/>
<path d="M22.7496 20.5391C22.829 20.2348 22.981 19.9546 23.1743 19.7021C23.271 19.5776 23.3815 19.46 23.5058 19.3562C23.5368 19.332 23.5679 19.3043 23.599 19.2801L23.6991 19.2109L23.8027 19.1452C23.8372 19.1245 23.8752 19.1072 23.9097 19.0864C23.9443 19.0657 23.9822 19.0518 24.0202 19.0345L24.0755 19.0103L24.1342 18.9896C24.2101 18.9619 24.2895 18.9446 24.3689 18.9238C24.5278 18.8927 24.6935 18.8858 24.8523 18.8927C25.1734 18.9204 25.4807 19.0207 25.7466 19.1798C25.4427 19.1141 25.1423 19.0691 24.8489 19.0829C24.7038 19.0933 24.5588 19.1106 24.4173 19.1452C24.2792 19.1833 24.1411 19.2317 24.0133 19.2974C23.7544 19.4254 23.523 19.6087 23.3124 19.8232C23.1053 20.0411 22.9188 20.2797 22.7496 20.5391Z" fill="#333333"/>
<path d="M27.3761 21.8741C29.1922 22.296 30.1245 21.5351 31.982 20.7741C33.843 20.0132 35.193 21.6216 35.193 21.6216C35.0652 16.7099 32.7001 16.5404 32.2789 16.5854C31.8577 16.6269 31.3502 17.4328 29.4063 16.6269C27.4625 15.821 26.765 16.6892 26.765 16.6892C26.765 16.6892 27.1448 17.4086 27.3761 21.7495V21.8741Z" fill="#333333"/>
<path d="M24.9248 12.9708C25.1803 13.2129 25.4358 13.4447 25.6982 13.6661C25.9606 13.8909 26.2299 14.1019 26.5096 14.2921C26.6477 14.389 26.7892 14.4754 26.9343 14.555C27.0793 14.6346 27.2277 14.7003 27.3727 14.7487C27.4107 14.7591 27.4453 14.7695 27.4832 14.7798C27.5212 14.7902 27.5557 14.7937 27.5972 14.8006C27.6386 14.8075 27.6766 14.811 27.718 14.8179C27.7594 14.8248 27.8009 14.8283 27.8423 14.8352C28.008 14.8525 28.1772 14.8698 28.3499 14.8871C28.5225 14.9009 28.6951 14.9216 28.8678 14.9389C29.0404 14.9597 29.2165 14.9804 29.3926 15.0081C29.7413 15.0635 30.0934 15.143 30.4353 15.2537C30.7771 15.3644 31.1085 15.5097 31.4158 15.6964C31.7231 15.8832 32.0028 16.108 32.2376 16.3709C31.9234 16.2084 31.6126 16.0631 31.295 15.9489C30.9773 15.8348 30.6528 15.7449 30.3213 15.6757C30.1556 15.6411 29.9899 15.61 29.8241 15.5823C29.6584 15.5581 29.4892 15.5304 29.3201 15.5097C29.1509 15.4889 28.9817 15.4681 28.8125 15.4509C28.6433 15.4301 28.4707 15.4128 28.2946 15.3886C28.122 15.3678 27.9459 15.3436 27.7698 15.309C27.68 15.2917 27.5937 15.2744 27.5039 15.2502C27.4625 15.2399 27.4107 15.226 27.3624 15.2122C27.3141 15.1984 27.2692 15.1811 27.2243 15.1638C26.8652 15.0185 26.5717 14.8006 26.2955 14.5688C26.0228 14.3336 25.7776 14.0811 25.5497 13.8113C25.3219 13.5485 25.1112 13.2648 24.9248 12.9708Z" fill="#333333"/>
<path d="M8.8664 15.3127C8.8664 15.3127 7.76846 14.0848 6.03522 14.9737C4.30198 15.8627 4.04993 15.1847 3.33178 15.0152C2.61362 14.8458 0.417729 14.9737 0.162231 19.6294C0.162231 19.6294 2.10608 18.2735 3.50096 19.1625C4.89584 20.0514 6.92255 20.3904 7.59928 20.1344C7.59928 20.1379 7.11245 17.6198 8.8664 15.3127Z" fill="#333333"/>
<path d="M9.70197 22.1544C9.70197 22.1544 9.40849 21.2723 8.91821 20.6809C8.42793 20.0929 7.98944 19.9926 7.7443 20.0929C7.49917 20.1897 7.49916 21.6148 8.52806 21.7601C9.55695 21.9088 9.70197 22.1544 9.70197 22.1544Z" fill="#333333"/>
<path d="M9.43265 20.2209C9.3049 20.0964 9.17715 19.9753 9.03904 19.8681C8.90439 19.7574 8.76283 19.6605 8.61091 19.581C8.45899 19.5014 8.30362 19.4357 8.1379 19.4046C7.97217 19.37 7.79953 19.3665 7.62 19.3873C7.70286 19.3492 7.78918 19.3216 7.87895 19.3077C7.96871 19.2939 8.06194 19.287 8.15516 19.2974C8.33815 19.3146 8.51769 19.3734 8.67996 19.4599C8.84224 19.5499 8.98725 19.6605 9.115 19.7885C9.2393 19.9165 9.35323 20.0618 9.43265 20.2209Z" fill="#333333"/>
<path d="M18.7135 35.2495C18.6099 35.8791 18.4304 36.4947 18.206 37.0966C18.092 37.3975 17.9608 37.6915 17.8158 37.9786C17.7433 38.1239 17.6674 38.2657 17.5845 38.4041C17.5051 38.5424 17.4188 38.6808 17.329 38.8157C16.9665 39.3518 16.5245 39.8464 15.9894 40.2373L15.8892 40.3099L15.7857 40.3791C15.7166 40.4275 15.6441 40.4656 15.575 40.5105C15.5025 40.5486 15.43 40.5935 15.3541 40.6281L15.2401 40.6835L15.1262 40.7319C14.8189 40.8633 14.4944 40.9567 14.1664 41.0121C13.5069 41.1227 12.8267 41.0743 12.188 40.9291C11.8669 40.8564 11.5492 40.763 11.2385 40.642C11.1591 40.6143 11.0831 40.5762 11.0072 40.5451C10.9312 40.5105 10.8553 40.4725 10.7793 40.4344L10.6688 40.3756L10.6136 40.3445L10.5583 40.3134L10.4513 40.2476L10.3443 40.1785L10.2925 40.1439L10.2407 40.1058L10.1371 40.0297C10.0715 39.9744 10.0024 39.9225 9.9403 39.8637C9.8747 39.8084 9.816 39.7461 9.75385 39.6838C9.72278 39.6527 9.69516 39.6216 9.66754 39.5905C9.63646 39.5593 9.60884 39.5247 9.58467 39.4936C9.52943 39.4279 9.47764 39.3587 9.42585 39.2895C9.37751 39.2169 9.32917 39.1477 9.28429 39.0716C9.19452 38.9229 9.11511 38.7707 9.04951 38.6116C8.91831 38.2934 8.83199 37.9613 8.78365 37.6258C8.73532 37.2903 8.72151 36.9548 8.73186 36.6227C8.75603 35.9586 8.88033 35.3118 9.0357 34.6857L9.15309 34.2222C9.1738 34.1462 9.19107 34.0701 9.20833 33.9974C9.22559 33.9248 9.24286 33.8487 9.24631 33.7933C9.24631 33.7864 9.24976 33.7795 9.24976 33.7726C9.24976 33.7691 9.24976 33.7622 9.24976 33.7588V33.7C9.24976 33.6584 9.25322 33.6169 9.25322 33.5754C9.25667 33.4924 9.26357 33.406 9.27048 33.3229C9.28774 33.1535 9.31536 32.9805 9.3637 32.811C9.38787 32.7245 9.41549 32.6381 9.45347 32.5551C9.48454 32.4824 9.51217 32.4132 9.53979 32.3406C9.59503 32.1988 9.64337 32.0535 9.6848 31.9082C9.72623 31.763 9.76076 31.6142 9.79183 31.4655C9.81945 31.3168 9.84017 31.168 9.85398 31.0159C9.86779 30.8671 9.8747 30.7149 9.87124 30.5627C9.87124 30.4866 9.86779 30.4105 9.86434 30.3379C9.86089 30.2618 9.85398 30.1823 9.84707 30.1062C9.81945 29.7983 9.77457 29.4939 9.6917 29.2138C9.67099 29.1446 9.64682 29.0754 9.6192 29.0132C9.60539 28.982 9.59158 28.9509 9.57431 28.9232C9.56741 28.9094 9.55705 28.8955 9.55015 28.8817L9.53633 28.861L9.51907 28.8333C9.4224 28.6811 9.34989 28.5254 9.28774 28.3698C9.1669 28.0585 9.08058 27.7437 9.00808 27.4255C8.86997 26.7925 8.78365 26.1561 8.72496 25.5162C8.69734 25.198 8.68007 24.8763 8.66972 24.5546C8.66626 24.4751 8.66626 24.3955 8.65936 24.3194C8.6559 24.2433 8.649 24.1638 8.63864 24.0877C8.62138 23.932 8.59721 23.7798 8.56268 23.6242C8.49708 23.3163 8.40041 23.0154 8.27956 22.7249C8.24849 22.6522 8.21742 22.5796 8.18979 22.5C8.16217 22.424 8.14146 22.3479 8.12074 22.2683C8.08276 22.1127 8.06205 21.9535 8.05859 21.7944C8.07931 21.9535 8.11384 22.1092 8.16217 22.2579C8.18634 22.334 8.21396 22.4067 8.24849 22.4793C8.27956 22.5519 8.31754 22.6177 8.35552 22.6903C8.50053 22.9774 8.62138 23.2748 8.71115 23.5861C8.75603 23.7418 8.79401 23.9009 8.82163 24.06C8.83544 24.1396 8.8458 24.2191 8.85616 24.3021C8.86652 24.3817 8.87342 24.4647 8.88033 24.5408C8.9114 24.8556 8.94593 25.1703 8.99427 25.4816C9.08404 26.1077 9.19452 26.7303 9.36025 27.3356C9.44311 27.6365 9.53633 27.934 9.65718 28.2107C9.71933 28.349 9.78493 28.4805 9.86434 28.5946L9.89886 28.6465C9.91268 28.6673 9.92649 28.688 9.93684 28.7053C9.96101 28.7468 9.98173 28.7849 10.0024 28.8264C10.0439 28.9094 10.075 28.9889 10.1026 29.072C10.2131 29.4005 10.2683 29.7257 10.3063 30.0508C10.3166 30.1338 10.3235 30.2134 10.3304 30.2964C10.3374 30.3794 10.3443 30.4624 10.3443 30.5489C10.3512 30.7149 10.3477 30.8844 10.3374 31.0504C10.327 31.2165 10.3063 31.3825 10.2787 31.5485C10.251 31.7145 10.2131 31.8771 10.1716 32.0362C10.1302 32.1988 10.0784 32.3579 10.0197 32.5136C9.99209 32.5897 9.96101 32.6692 9.92994 32.7453C9.90577 32.8076 9.88505 32.8733 9.86434 32.9425C9.82981 33.0774 9.80564 33.2226 9.79183 33.3679C9.78493 33.4405 9.78147 33.5166 9.77802 33.5893C9.77802 33.6273 9.77457 33.6654 9.77457 33.7034V33.7622L9.77112 33.8072C9.77112 33.821 9.76766 33.8349 9.76766 33.8487C9.75731 33.949 9.73659 34.032 9.71933 34.115C9.70206 34.198 9.68135 34.2741 9.66408 34.3537L9.55015 34.8172C9.40168 35.4259 9.2912 36.0382 9.26703 36.6469C9.24286 37.2557 9.31191 37.861 9.53633 38.4041C9.59158 38.539 9.65718 38.6704 9.72968 38.7949C9.76421 38.8572 9.80564 38.9194 9.84707 38.9782C9.89196 39.037 9.93339 39.0958 9.97828 39.1512C10.0024 39.1788 10.0232 39.2065 10.0473 39.2342C10.0715 39.2619 10.0957 39.2895 10.1198 39.3172C10.1716 39.3691 10.22 39.421 10.2752 39.4694C10.327 39.5213 10.3857 39.5662 10.4409 39.6147L10.5273 39.6804L10.5721 39.715L10.617 39.7461L10.7068 39.8084L10.8 39.8672L10.8483 39.8983L10.8967 39.926L10.9934 39.9813C11.059 40.0159 11.1246 40.0505 11.1936 40.0816C11.2627 40.1128 11.3283 40.1473 11.4008 40.175C11.6804 40.2926 11.9705 40.386 12.2708 40.4586C12.5678 40.5347 12.8682 40.5866 13.172 40.6074C13.4724 40.6316 13.7762 40.6281 14.0766 40.5866C14.6739 40.5105 15.2505 40.2892 15.758 39.9502L15.8064 39.9191L15.8547 39.8845L15.9479 39.8187C16.0066 39.7703 16.0722 39.7254 16.1309 39.6769C16.2518 39.5801 16.3623 39.4763 16.4762 39.3691C16.5867 39.2619 16.6937 39.1477 16.7938 39.0301C16.894 38.9125 16.9941 38.7915 17.0873 38.6669C17.4637 38.1688 17.7778 37.6189 18.0437 37.0447C18.1784 36.7576 18.2957 36.4636 18.4062 36.1661C18.534 35.8618 18.6307 35.5608 18.7135 35.2495Z" fill="#333333"/>
<path d="M13.9004 35.2567C12.9785 35.1149 12.7748 36.1352 12.7748 36.1352C12.7748 36.1352 12.723 35.0976 11.7908 35.1322C10.8586 35.1633 9.91602 33.8351 9.91602 33.8351C10.0265 34.1049 10.5375 34.8382 10.8241 35.0319C11.1106 35.2256 11.1417 35.1218 11.2695 35.4089C11.8461 36.706 12.5435 36.8893 12.578 36.9792C12.616 37.0691 12.6816 38.1725 12.6816 38.1725C12.6816 38.1725 12.868 37.0864 12.9164 37C12.9647 36.9135 13.707 36.706 14.3907 35.5957C14.5564 35.3293 14.5702 35.4296 14.874 35.274C15.1779 35.1149 15.7648 34.4473 15.9064 34.1948C15.9064 34.1913 14.8257 35.3985 13.9004 35.2567Z" fill="#333333"/>
<path d="M2.04395 14.8251C2.16824 14.666 2.31671 14.5276 2.47208 14.3962C2.62745 14.2682 2.79663 14.1506 2.97271 14.0468C3.32488 13.8393 3.70813 13.6767 4.10519 13.566C4.30544 13.5107 4.5057 13.4692 4.71286 13.4346C4.76465 13.4277 4.81644 13.4208 4.86823 13.4139L5.0236 13.3966C5.12718 13.3862 5.2273 13.3793 5.33088 13.3758C5.7383 13.3551 6.13881 13.3654 6.53586 13.3758C7.32653 13.3966 8.10338 13.4242 8.85606 13.2824C9.2324 13.2132 9.59838 13.1026 9.94365 12.9365C10.2924 12.7705 10.6204 12.5491 10.9277 12.2966C10.6963 12.6252 10.4063 12.9158 10.0679 13.151C9.72958 13.3862 9.34633 13.5591 8.94583 13.6733C8.54877 13.7874 8.1379 13.8497 7.73049 13.8739C7.32307 13.9016 6.91911 13.8981 6.52205 13.8912C6.125 13.8843 5.73139 13.8704 5.34469 13.8739C5.24802 13.8773 5.15135 13.8773 5.05467 13.8808L4.91311 13.8877C4.86477 13.8912 4.81989 13.8946 4.77155 13.8981C4.58166 13.9119 4.39176 13.9396 4.20531 13.9707C3.82897 14.0399 3.45609 14.1402 3.09701 14.282C2.72757 14.4308 2.3754 14.6003 2.04395 14.8251Z" fill="#333333"/>
<path d="M9.03908 26.7476C9.00455 26.8721 8.96312 26.9966 8.91824 27.1211C8.87335 27.2422 8.82502 27.3667 8.77668 27.4878C8.67655 27.7299 8.56952 27.9685 8.45213 28.2003C8.21735 28.6672 7.95149 29.1204 7.66147 29.5562C7.07797 30.4278 6.38053 31.2268 5.59677 31.9359C5.39652 32.1088 5.19972 32.2818 4.9891 32.4409C4.78194 32.6069 4.56442 32.7557 4.35036 32.9079L4.0189 33.1223L3.93604 33.1742C3.90842 33.1915 3.8808 33.2088 3.85318 33.2261L3.68054 33.3229L3.50791 33.4198C3.44921 33.4509 3.39397 33.4855 3.33528 33.5132L2.9831 33.693L2.89679 33.738L2.80702 33.7795L2.62748 33.859L2.44794 33.9386C2.41687 33.9524 2.38925 33.9663 2.35817 33.9767L2.26495 34.0112L1.89551 34.1496L1.80229 34.1842L1.70907 34.2153L1.52263 34.2741L1.33618 34.3329L1.24296 34.3606C1.21189 34.371 1.18081 34.3779 1.14629 34.3848C1.01854 34.4159 0.894241 34.4471 0.766492 34.4782C0.638743 34.5093 0.510995 34.5335 0.383246 34.5543C0.255497 34.575 0.127749 34.5993 0 34.6165C0.120843 34.5681 0.241687 34.5232 0.36253 34.4782L0.545521 34.4125L0.590406 34.3952L0.635291 34.3779L0.72506 34.3398C0.842451 34.288 0.963294 34.243 1.08068 34.1946C1.11176 34.1807 1.13938 34.1703 1.17045 34.1565L1.25677 34.115L1.43286 34.0355L1.60894 33.9559L1.69526 33.9178L1.78158 33.8729L2.12339 33.6999L2.20971 33.6584L2.29257 33.6135L2.46175 33.5201L2.63093 33.4267L2.7138 33.3817L2.79666 33.3333L3.12466 33.1361C3.17991 33.105 3.2317 33.0704 3.28694 33.0358L3.44576 32.9321L3.60458 32.8283C3.65637 32.7937 3.70816 32.7557 3.75995 32.7211L4.07069 32.5032C4.27095 32.3475 4.47811 32.2022 4.67146 32.0362C4.87171 31.8806 5.06161 31.7111 5.25151 31.545C6.00419 30.8671 6.70163 30.12 7.33346 29.3141C7.65111 28.9128 7.94804 28.4978 8.23461 28.0689C8.51773 27.6434 8.79049 27.2041 9.03908 26.7476Z" fill="#333333"/>
<path d="M22.8497 35.5816C22.4803 36.4152 22.1109 37.2419 21.7622 38.0755C21.5895 38.4906 21.4203 38.9091 21.2581 39.3276L20.7816 40.5866C20.6262 41.0086 20.4674 41.4272 20.3327 41.8595C20.1981 42.2884 20.0842 42.7277 20.0151 43.1739C20.0013 43.2846 19.984 43.3987 19.9737 43.5094C19.9633 43.6201 19.9564 43.7342 19.9461 43.8449C19.9391 43.9591 19.9288 44.0732 19.9219 44.1874C19.9184 44.215 19.9184 44.2462 19.915 44.2738L19.9046 44.3603L19.8874 44.5332C19.8321 44.9898 19.7527 45.4464 19.6457 45.8961C19.4385 46.7988 19.1105 47.667 18.7065 48.4971C18.5063 48.9122 18.2922 49.3204 18.0643 49.7216C17.8365 50.1228 17.5913 50.5102 17.3358 50.8907C16.8179 51.6482 16.2551 52.3746 15.6475 53.0629C15.3436 53.4053 15.0329 53.7443 14.7118 54.066C14.3907 54.3911 14.0558 54.7024 13.7071 54.9999L13.6656 54.9584C14.7705 53.5091 15.8374 52.0529 16.8145 50.5413C17.0596 50.1643 17.3013 49.7839 17.5361 49.4034C17.7709 49.0194 17.9987 48.6355 18.2128 48.2412C18.4303 47.8469 18.6237 47.4456 18.817 47.0409C18.9137 46.8403 19.0035 46.6328 19.0932 46.4287L19.221 46.1174C19.2624 46.0137 19.3004 45.9064 19.3418 45.8027C19.4938 45.3807 19.6215 44.9483 19.694 44.5056L19.7216 44.3396C19.732 44.2842 19.7389 44.2289 19.7423 44.1735C19.7527 44.0628 19.7631 43.9522 19.7734 43.838L19.7976 43.4956C19.8114 43.3814 19.8183 43.2673 19.8321 43.1531C19.8839 42.6966 19.9426 42.2435 20.022 41.7869C20.1014 41.3338 20.1946 40.8807 20.3224 40.4379C20.4467 39.9952 20.6021 39.5594 20.7781 39.1374C20.9542 38.7119 21.1476 38.2969 21.3547 37.8853C21.5619 37.4771 21.7863 37.0759 22.0246 36.685C22.2662 36.2942 22.5183 35.9137 22.8049 35.554L22.8497 35.5816Z" fill="#333333"/>
<path d="M10.5756 12.6249C10.6412 12.5488 10.7068 12.4692 10.7689 12.3897C10.8311 12.3101 10.8932 12.2306 10.9519 12.1476C11.0693 11.985 11.1763 11.8155 11.2626 11.6426L11.2937 11.5768L11.3248 11.5111C11.3455 11.4696 11.3628 11.4212 11.3835 11.3728C11.4215 11.2794 11.4629 11.1825 11.5078 11.0857C11.601 10.892 11.7115 10.7017 11.853 10.5288C11.9221 10.4423 11.9981 10.3593 12.0809 10.2832C12.1638 10.2071 12.2501 10.1379 12.3433 10.0722C12.5263 9.94425 12.7266 9.84394 12.9337 9.76784C13.3446 9.61219 13.7762 9.55339 14.2009 9.54993C14.4115 9.54993 14.6255 9.55685 14.8362 9.59144C15.0468 9.62257 15.2574 9.66753 15.4611 9.74363C15.6648 9.81627 15.8581 9.91657 16.0342 10.0376C16.1205 10.0964 16.2069 10.1622 16.2863 10.2313C16.3657 10.3005 16.4416 10.3697 16.5176 10.4389C16.6661 10.5772 16.8145 10.7156 16.9768 10.8228C17.1391 10.93 17.3221 10.9992 17.512 11.0303C17.6086 11.0476 17.7053 11.0511 17.802 11.0511C17.8987 11.0511 17.9919 11.0407 18.0817 11.02C18.2612 10.975 18.4269 10.8885 18.5788 10.7744C18.7308 10.6602 18.8758 10.5253 19.0173 10.3835C19.1623 10.2452 19.3108 10.0964 19.4731 9.96154C19.6354 9.82318 19.8149 9.69521 20.0082 9.58798C20.2016 9.48075 20.4157 9.39774 20.6332 9.3424C20.8507 9.28706 21.0751 9.25938 21.2961 9.25593C21.5171 9.25247 21.738 9.26976 21.9521 9.30781C22.0591 9.3251 22.1662 9.34932 22.2697 9.37353C22.3733 9.4012 22.4769 9.42887 22.5805 9.46C22.6841 9.49113 22.7842 9.52572 22.8843 9.56377C22.9844 9.60181 23.0846 9.64332 23.1847 9.69175C23.3815 9.78514 23.5714 9.89582 23.7509 10.0238C23.9305 10.1552 24.0962 10.304 24.2447 10.47C24.3931 10.6395 24.5174 10.8263 24.6141 11.0234C24.7108 11.2206 24.7867 11.4281 24.8351 11.6391C24.8834 11.8501 24.9179 12.0576 24.9352 12.2652L24.9628 12.5695C24.9732 12.6664 24.9835 12.7667 25.0077 12.8497C25.0146 12.8705 25.0215 12.8912 25.0284 12.9085L25.0353 12.9224C25.0388 12.9258 25.0388 12.9293 25.0422 12.9362L25.0629 12.9673C25.0906 13.0088 25.1182 13.0503 25.1493 13.0918C25.208 13.1749 25.2667 13.2544 25.3288 13.334C25.4531 13.4931 25.5843 13.6487 25.7224 13.7975L25.6879 13.8355C25.5291 13.7041 25.3771 13.5657 25.2321 13.4204C25.1596 13.3478 25.0906 13.2717 25.0215 13.1921C24.987 13.1541 24.9525 13.1126 24.9214 13.0745L24.8972 13.0434C24.8903 13.033 24.8765 13.0192 24.8696 13.0054C24.8523 12.9777 24.8351 12.9535 24.8247 12.9258C24.7729 12.8186 24.7453 12.7148 24.7211 12.6145L24.6486 12.3136C24.6245 12.2167 24.6003 12.1199 24.5761 12.023C24.5485 11.9297 24.5209 11.8363 24.4864 11.7429C24.4208 11.563 24.3379 11.3901 24.2412 11.231C24.1445 11.0718 24.0272 10.9266 23.8959 10.7951C23.6335 10.5357 23.3124 10.3351 22.9603 10.1864C22.7876 10.1103 22.6047 10.048 22.4182 9.99267C22.3733 9.97883 22.325 9.965 22.2801 9.95116L22.1385 9.91657C22.0453 9.89236 21.9521 9.87161 21.8589 9.85431C21.486 9.78514 21.1062 9.76438 20.7506 9.83702C20.571 9.87161 20.3984 9.93387 20.2327 10.0134C20.0669 10.093 19.9047 10.1967 19.7493 10.3109C19.4317 10.5357 19.1313 10.8228 18.7515 11.0407C18.5616 11.1479 18.351 11.2344 18.1265 11.2586C18.0161 11.2725 17.9056 11.2759 17.7951 11.2655C17.6881 11.2552 17.581 11.2413 17.4774 11.2171C17.2668 11.1687 17.0666 11.0788 16.8905 10.9612C16.7144 10.8436 16.5625 10.6983 16.4106 10.5668C16.2587 10.4319 16.1033 10.3109 15.9306 10.214C15.8443 10.1656 15.758 10.1276 15.6682 10.093C15.5785 10.0618 15.4853 10.0342 15.3886 10.0134C15.0088 9.93387 14.6186 9.95116 14.225 9.98575C13.8349 10.0238 13.4516 10.0861 13.096 10.2106C12.7404 10.3351 12.4193 10.5253 12.1672 10.7986C12.0395 10.9335 11.929 11.0891 11.8289 11.2552C11.7771 11.3382 11.7288 11.4247 11.6804 11.5146C11.6562 11.5595 11.6321 11.6045 11.601 11.6495L11.5596 11.7187L11.5147 11.7844C11.3904 11.9608 11.2523 12.1199 11.1004 12.2652C10.9484 12.4104 10.7896 12.5419 10.6204 12.6595L10.5756 12.6249Z" fill="#333333"/>
<path d="M15.5542 9.94088C15.2607 8.80636 14.9396 7.68914 14.5529 6.60305C14.3595 6.06 14.1455 5.52387 13.9107 5.00504C13.6725 4.4862 13.4101 3.9812 13.1166 3.49696C12.9681 3.25484 12.8127 3.02309 12.6401 2.79826C12.4709 2.57343 12.2845 2.36244 12.0808 2.16874C11.9807 2.07189 11.8702 1.98196 11.7597 1.89549C11.7044 1.85398 11.6457 1.80902 11.587 1.77443L11.4973 1.71563L11.4041 1.66028C11.1589 1.51155 10.9034 1.37665 10.641 1.25559C10.1162 1.01693 9.56033 0.843985 8.9941 0.743677C8.85254 0.719465 8.71098 0.698711 8.56597 0.681417C8.42441 0.667581 8.27939 0.657204 8.13783 0.650287C7.85126 0.636451 7.56815 0.650287 7.28848 0.684876C7.15037 0.70217 7.01227 0.729841 6.88106 0.760971C6.81546 0.778266 6.75332 0.799019 6.69462 0.819773C6.667 0.830149 6.63593 0.843985 6.61176 0.854362C6.58759 0.868197 6.56687 0.878574 6.55306 0.888951V0.899327C6.55306 0.899327 6.55306 0.899327 6.55306 0.902786H6.55651C6.55651 0.902786 6.56342 0.895868 6.56687 0.888951C6.56687 0.888951 6.57032 0.885492 6.57032 0.882033C6.57378 0.878574 6.57378 0.875115 6.57723 0.871656C6.57723 0.868197 6.58068 0.864738 6.58068 0.861279C6.58068 0.85782 6.58414 0.850903 6.58759 0.847444C6.59104 0.837067 6.59104 0.82669 6.59104 0.812855C6.59104 0.799019 6.59104 0.785184 6.58759 0.771348C6.58759 0.760971 6.58414 0.747136 6.57723 0.736759C6.57378 0.729841 6.57378 0.726382 6.57032 0.722923C6.56687 0.719465 6.56687 0.716006 6.56342 0.712547C6.55997 0.709088 6.55997 0.705629 6.55651 0.70217C6.55306 0.698711 6.55306 0.698711 6.55306 0.695252C6.54961 0.691793 6.54616 0.688334 6.5427 0.684876C6.53925 0.681417 6.53925 0.681417 6.5358 0.677958H6.53925C6.5427 0.677958 6.54616 0.681417 6.54961 0.681417L6.58413 0.688334L6.68426 0.712547C6.82237 0.743677 6.96393 0.774807 7.10894 0.809396C7.68554 0.937375 8.26904 1.11724 8.82492 1.39395C9.10113 1.53231 9.37044 1.69487 9.61903 1.88857C9.86762 2.08227 10.0989 2.3071 10.2992 2.56306C10.496 2.81901 10.6617 3.10264 10.7791 3.40357C10.8067 3.47966 10.8378 3.55576 10.862 3.6284C10.8862 3.70103 10.9069 3.77367 10.931 3.84631L10.9932 4.06422C11.0139 4.13685 11.0312 4.20949 11.0519 4.28213C11.1969 4.86322 11.3039 5.44777 11.3902 6.03233C11.4766 6.61688 11.5422 7.20144 11.5905 7.78945C11.6388 8.37746 11.6699 8.96547 11.6768 9.55348C11.6803 9.84749 11.6768 10.145 11.663 10.439C11.6596 10.5116 11.6561 10.5877 11.6492 10.6603C11.6457 10.733 11.6354 10.8091 11.6285 10.8817C11.6181 10.9543 11.6112 11.0304 11.594 11.1031C11.5801 11.1757 11.5629 11.2518 11.5353 11.3244L11.4731 11.3037C11.4973 11.1688 11.4869 11.0201 11.4835 10.8782C11.4766 10.733 11.4628 10.5877 11.4489 10.4459C11.4213 10.1553 11.3833 9.86824 11.3454 9.58116C11.266 9.00352 11.1762 8.42934 11.0795 7.85517C10.9828 7.28099 10.8793 6.71027 10.7653 6.14301C10.6514 5.57575 10.5271 5.01195 10.3786 4.46199C10.3579 4.39281 10.3406 4.32363 10.3234 4.25792L10.2647 4.05384C10.244 3.98466 10.2232 3.91894 10.2025 3.85322C10.1922 3.81864 10.1784 3.79096 10.168 3.75983L10.1335 3.66644C10.0403 3.42086 9.91251 3.19257 9.75714 2.98158C9.60177 2.77059 9.42223 2.57689 9.21507 2.40395C9.00791 2.231 8.78348 2.07881 8.5418 1.94737C8.30011 1.81593 8.04807 1.69833 7.78566 1.59802C7.52326 1.49772 7.25395 1.40778 6.97774 1.32131C6.83963 1.27635 6.70153 1.23484 6.55651 1.18987C6.52199 1.1795 6.48401 1.16566 6.44603 1.15183L6.43222 1.14491L6.41495 1.13799C6.40114 1.13453 6.39079 1.12761 6.37697 1.12416L6.339 1.1034C6.32519 1.09648 6.30792 1.08611 6.29411 1.07573C6.27685 1.0619 6.25958 1.05152 6.24232 1.03768C6.23196 1.02731 6.22161 1.02039 6.2147 1.01001C6.21125 1.00309 6.20779 0.999635 6.20089 0.992717C6.19744 0.9858 6.19053 0.978882 6.18708 0.971964C6.18363 0.965046 6.17672 0.958128 6.17327 0.951211C6.16982 0.944293 6.16636 0.937375 6.15946 0.926998C6.15255 0.906245 6.14565 0.885492 6.13874 0.868197C6.13529 0.847444 6.13184 0.823231 6.13184 0.799019C6.13184 0.774807 6.13529 0.757512 6.14219 0.736759C6.14565 0.726382 6.1491 0.716006 6.1491 0.709088C6.15255 0.70217 6.156 0.695252 6.15946 0.684876C6.16636 0.67104 6.17672 0.653746 6.18363 0.643369C6.19744 0.622616 6.2147 0.601862 6.22851 0.588027L6.24923 0.567273C6.25613 0.560355 6.26304 0.556896 6.26994 0.549979L6.29066 0.536143L6.30792 0.525766C6.35626 0.494636 6.40114 0.473883 6.44258 0.460047C6.48401 0.442753 6.52544 0.432376 6.56687 0.418541C6.64628 0.397787 6.72569 0.380493 6.80511 0.370116C6.96048 0.345904 7.11239 0.335527 7.26431 0.332068C7.87198 0.318233 8.46239 0.401246 9.03898 0.529225C9.61558 0.657204 10.1784 0.840526 10.7273 1.0619C10.862 1.11724 11.0001 1.17258 11.1347 1.23484C11.2038 1.26597 11.2694 1.2971 11.3385 1.32823C11.4041 1.35936 11.4731 1.39049 11.5387 1.42508L11.6388 1.4735L11.739 1.52539C11.808 1.55998 11.8702 1.59802 11.9358 1.63607C12.0635 1.71563 12.1913 1.79864 12.3121 1.88857C12.5572 2.06843 12.7817 2.27251 12.9923 2.49388C13.2029 2.71179 13.3962 2.94699 13.5723 3.19258C13.9245 3.68374 14.2111 4.21641 14.4459 4.76637C14.6841 5.31288 14.8809 5.87668 15.0432 6.4474C15.2054 7.01811 15.3366 7.59575 15.4333 8.17684C15.53 8.75794 15.6025 9.34595 15.6198 9.93396L15.5542 9.94088Z" fill="#333333"/>
<path d="M19.801 9.73343C19.8873 9.38408 19.9978 9.04511 20.1118 8.70614C20.2292 8.36717 20.3535 8.03165 20.4881 7.6996C20.7574 7.03549 21.0647 6.38522 21.4065 5.7557C21.5757 5.43748 21.7587 5.12964 21.9486 4.8218C22.1419 4.51742 22.3422 4.21649 22.5563 3.92249C22.9809 3.33793 23.4574 2.78105 23.9995 2.29335C24.2722 2.05122 24.5588 1.82294 24.8626 1.61886C25.1665 1.41479 25.4876 1.23492 25.8225 1.08273C25.9053 1.04469 25.9917 1.0101 26.0745 0.975508C26.1608 0.944378 26.2437 0.90633 26.3335 0.878659L26.4647 0.833693L26.5924 0.792186C26.6787 0.764515 26.7651 0.740303 26.8514 0.716091C27.024 0.667666 27.1966 0.615782 27.3693 0.570817C27.4556 0.546605 27.5419 0.525851 27.6282 0.501639L27.8872 0.439379C28.5812 0.273352 29.2855 0.145373 30.0002 0.069277C30.7149 9.90853e-05 31.4331 -0.0344899 32.1616 0.0485236C32.3446 0.069277 32.5276 0.100407 32.7105 0.148832C32.8038 0.173044 32.897 0.204174 32.9902 0.242222C33.0834 0.283729 33.1801 0.332153 33.2802 0.422084C33.3286 0.470509 33.3804 0.532769 33.4114 0.629618C33.4183 0.65383 33.4252 0.678043 33.4252 0.705714C33.4287 0.733385 33.4287 0.757597 33.4252 0.785268C33.4252 0.81294 33.4183 0.837152 33.4114 0.861364C33.4045 0.885576 33.3942 0.90633 33.3873 0.927083C33.3458 1.0101 33.2975 1.06198 33.2492 1.10695C33.225 1.1277 33.2008 1.14845 33.1767 1.16575C33.1663 1.17266 33.1525 1.18304 33.1421 1.18996L33.1042 1.21071L33.0282 1.25222C33.004 1.26605 32.9799 1.27297 32.9557 1.28681L32.8832 1.31794C32.859 1.32831 32.8348 1.33523 32.8107 1.34215L32.7382 1.36636C32.714 1.37328 32.6898 1.3802 32.6657 1.38366C32.6173 1.39403 32.569 1.40787 32.5241 1.41825C32.3377 1.45975 32.1581 1.48397 31.9786 1.50818L31.4538 1.57736C31.1085 1.62578 30.7736 1.68458 30.4525 1.77797C30.1314 1.8679 29.8207 1.99242 29.5341 2.14807C29.2475 2.30372 28.9851 2.50088 28.7503 2.72571C28.5156 2.95054 28.3084 3.2065 28.1254 3.48321C27.939 3.75646 27.7905 4.06084 27.6489 4.36522C27.5833 4.52087 27.5143 4.67653 27.459 4.83909L27.3727 5.08122L27.2899 5.33372C27.1794 5.66923 27.0689 6.00474 26.9619 6.34025C26.7478 7.01474 26.5441 7.68922 26.3473 8.37063L26.0504 9.39446L25.9019 9.90638C25.8501 10.0759 25.7983 10.2488 25.7465 10.4183C25.6395 10.7607 25.5255 11.1032 25.384 11.4352C25.3115 11.6012 25.2286 11.7638 25.1319 11.9195C25.0353 12.0751 24.9179 12.2204 24.7832 12.338L24.7349 12.293C24.8454 12.1581 24.9317 12.0059 25.0042 11.8503C25.0767 11.6912 25.1319 11.5286 25.1803 11.3591C25.2321 11.1931 25.2735 11.0201 25.3115 10.8507C25.3495 10.6777 25.3874 10.5082 25.422 10.3318L25.6291 9.28723C25.6982 8.93789 25.7672 8.58854 25.8432 8.23919C25.9951 7.54049 26.1608 6.84525 26.3473 6.15693C26.3922 5.98399 26.4405 5.81104 26.4888 5.64156C26.5406 5.46861 26.589 5.29913 26.6408 5.12618L26.7167 4.87022C26.7443 4.78375 26.7754 4.69382 26.803 4.60735C26.8583 4.43094 26.9308 4.258 26.9998 4.08505C27.0344 3.99858 27.0758 3.91557 27.1172 3.8291L27.1759 3.70112C27.1966 3.65961 27.2208 3.6181 27.2415 3.5766C27.2864 3.49358 27.3313 3.41057 27.3796 3.33102C27.4314 3.25146 27.4798 3.17191 27.5315 3.09235C27.7456 2.77759 27.9908 2.48013 28.2739 2.22071C28.557 1.96129 28.8781 1.73992 29.2199 1.56352C29.5617 1.39058 29.9242 1.2626 30.2868 1.17266C30.6493 1.08273 31.0187 1.03085 31.3778 0.996261C31.5574 0.978967 31.7369 0.965131 31.913 0.947836C32.0891 0.934001 32.2617 0.920165 32.424 0.895953C32.5863 0.871741 32.7416 0.837152 32.8556 0.78181L32.8763 0.771433C32.8832 0.767974 32.8901 0.764515 32.897 0.761056C32.9108 0.754138 32.9212 0.747221 32.9315 0.740303C32.9488 0.726467 32.9626 0.712632 32.9626 0.716091C32.9626 0.716091 32.9626 0.719549 32.9626 0.723008C32.9591 0.726467 32.9626 0.729926 32.9626 0.733385C32.9626 0.736844 32.9626 0.743762 32.9626 0.747221C32.9626 0.750679 32.966 0.754138 32.966 0.757597C32.9729 0.767974 32.9695 0.757597 32.9557 0.740303C32.9419 0.723008 32.9177 0.705714 32.8935 0.68496C32.8659 0.667666 32.8348 0.646913 32.8038 0.629618C32.7382 0.595029 32.6622 0.563899 32.5863 0.536228C32.4309 0.480886 32.2652 0.43592 32.0994 0.401331C31.7645 0.335612 31.4158 0.294105 31.0671 0.28027C30.891 0.273352 30.7184 0.269893 30.5423 0.269893C30.3662 0.273352 30.1901 0.28027 30.0175 0.294105C29.3166 0.34253 28.6191 0.463591 27.939 0.650371C27.5971 0.743762 27.2622 0.850987 26.9342 0.975508C26.8514 1.00664 26.7685 1.03777 26.6891 1.07236L26.5683 1.12078L26.4509 1.17266C26.3714 1.20725 26.2955 1.2453 26.2161 1.28335C26.1401 1.3214 26.0642 1.3629 25.9882 1.40787C25.6913 1.58081 25.4082 1.77797 25.1423 1.99588C24.8764 2.21379 24.6209 2.449 24.3793 2.69458C24.1376 2.94016 23.9028 3.19612 23.6784 3.46245C23.4539 3.72533 23.2364 3.99858 23.0258 4.27529C22.608 4.83218 22.2179 5.41673 21.8519 6.01512C21.4859 6.61351 21.1407 7.22919 20.8092 7.85525C20.6435 8.16655 20.4847 8.48131 20.3258 8.79953C20.167 9.11775 20.0116 9.43597 19.8632 9.75764L19.801 9.73343Z" fill="#333333"/>
<path d="M17.1701 40.8601C17.1701 40.8601 17.07 41.0469 17.253 42.8421C17.436 44.6338 18.0712 47.3387 15.8892 50.1334C15.8892 50.1334 16.8594 48.4005 16.4347 46.1834C16.01 43.9662 16.0273 42.5965 16.666 41.1991C16.6626 41.1991 16.6557 40.7391 17.1701 40.8601Z" fill="#333333"/>
<path d="M16.2413 41.2402C16.2413 41.2402 16.369 41.3475 16.186 41.804C15.9029 42.5096 15.4264 43.9001 15.5507 44.9931C15.6716 46.0861 16.2171 48.1234 15.6716 49.2476C15.6716 49.2476 15.5818 47.5147 15.1571 46.4528C14.7325 45.3909 14.4977 43.6338 15.6509 41.7487" fill="#333333"/>
<path d="M15.0986 41.9184C15.1607 42.2539 15.1158 42.6309 14.9052 43.0253C14.6946 43.4196 14.1456 44.6336 14.2975 45.7889C14.4495 46.9442 14.812 47.9161 14.6911 48.0061C14.5703 48.096 13.2376 45.6852 13.4482 44.0768C13.6588 42.4684 14.5668 42.4165 14.5979 41.9634C14.629 41.5103 15.0986 41.9184 15.0986 41.9184Z" fill="#333333"/>
</svg>
