<svg width="99" height="99" viewBox="0 0 99 99" fill="none" xmlns="http://www.w3.org/2000/svg">
<path d="M3.09375 94.3595L16.3969 89.7188L6.34218 85.0781L3.09375 94.3595Z" fill="#F7B600"/>
<path d="M41.6098 56.3065L22.8926 37.4346L19.7988 46.0971L41.6098 56.3065Z" fill="#FFDD7D"/>
<path d="M19.7996 46.0967L16.3965 55.842L57.8527 75.1779L59.8636 74.5592L41.6105 56.306L19.7996 46.0967Z" fill="#F7B600"/>
<path d="M13.1484 65.5861L44.0859 79.9721L57.8532 75.1768L16.3969 55.8408L13.1484 65.5861Z" fill="#FFDD7D"/>
<path d="M9.74414 75.3342L30.1628 84.9248L44.0848 79.9748L13.1473 65.5889L9.74414 75.3342Z" fill="#F7B600"/>
<path d="M9.74492 75.333L6.3418 85.0783L16.3965 89.719L30.1636 84.9237L9.74492 75.333Z" fill="#FFDD7D"/>
<path d="M49.3456 48.2616C59.7096 58.471 65.1237 69.9178 61.4112 73.6303C57.544 77.3428 46.0971 72.0835 35.5783 61.7195C25.2143 51.51 19.8003 40.0632 23.5128 36.3507C27.38 32.6382 38.8268 38.0522 49.3456 48.2616Z" fill="#493816"/>
<path d="M36.3509 22.43C33.8759 18.8722 36.5056 17.3253 39.9088 17.9441C36.6603 14.077 38.6713 11.2925 43.7759 12.3753C45.3228 12.6847 43.1571 15.3145 41.765 15.3145C45.9416 18.4082 43.6212 21.8113 39.1353 21.0378C43.1571 26.452 36.3509 25.0597 33.2571 25.3691C32.4838 29.391 37.1243 34.0316 35.5775 34.0316C32.1743 34.0316 26.6056 21.1925 36.3509 22.43Z" fill="#42ADE2"/>
<path d="M68.8368 29.8552C66.5165 30.938 60.0196 20.7286 68.0634 20.574C63.4228 16.3973 64.0415 14.3865 70.229 14.2317C63.1134 7.1161 74.4056 4.6411 75.4884 8.3536C75.7978 9.43642 72.0853 7.42548 70.8478 9.43642C69.4556 11.7567 79.5103 17.7895 69.1461 17.3255C73.0134 21.1927 73.1681 23.049 67.1353 23.6677C67.9086 24.9052 70.3836 29.2365 68.8368 29.8552Z" fill="#FF8736"/>
<path d="M71.4668 53.9846L73.7872 51.9737C73.7872 51.9737 75.9528 55.2221 77.4997 56.4596C78.7372 50.8909 78.4278 47.6424 84.77 51.3549C81.2122 41.7643 87.0903 45.3221 92.8137 47.9518C92.5043 45.4768 92.8137 45.7862 95.2887 45.0127C97.4543 53.2112 91.5762 50.7362 86.9355 48.1064C89.72 55.5314 86.7809 55.0674 80.9028 52.5924C80.748 55.6862 79.82 59.2439 77.9637 59.5534C75.798 60.1721 71.4668 53.9846 71.4668 53.9846Z" fill="#ED4C5C"/>
<path d="M54.1418 31.0922C51.3575 34.8047 46.8715 36.8156 43.623 40.064C40.22 43.4672 38.209 52.7485 38.209 52.7485C38.209 52.7485 39.4465 43.0032 42.695 39.2907C45.634 35.8875 49.9652 33.4125 52.2855 29.5453C56.3075 22.4297 52.595 13.1485 47.3355 7.73438C48.4184 6.80625 49.9652 5.56875 50.7387 4.64062C55.8434 10.9828 60.1747 23.2031 54.1418 31.0922Z" fill="#C28FEF"/>
<path d="M58.9356 38.9808C54.9137 41.9199 51.9746 46.2511 49.1903 50.2731C46.7153 53.8308 38.8262 58.3168 38.8262 58.3168C38.8262 58.3168 46.2512 53.2121 48.5716 49.4996C51.3559 44.859 54.1403 40.0637 58.4716 36.6606C67.1341 30.009 79.6637 30.6278 89.4091 34.1856C88.7903 35.5778 87.7074 38.5168 87.7074 38.5168C87.7074 38.5168 67.1341 32.9481 58.9356 38.9808Z" fill="#FF8736"/>
<path d="M76.1066 38.2082C73.477 41.6114 72.2395 45.7879 70.2285 49.6551C68.3722 53.2129 65.8972 56.616 62.3394 58.4722C58.3175 60.4832 49.5003 59.8644 49.5003 59.8644C49.5003 59.8644 58.3175 59.7097 62.03 57.2347C65.7425 54.7597 67.7535 50.4285 69.1457 46.4066C71.93 38.6722 75.3332 30.3191 83.377 26.916C83.841 28.3082 84.9238 31.2472 84.9238 31.2472C84.9238 31.2472 80.4378 32.4847 76.1066 38.2082ZM4.96582 22.1593L9.34038 17.7832L13.7165 22.1579L9.34193 26.5355L4.96582 22.1593Z" fill="#42ADE2"/>
<path d="M11.0957 35.8833L15.4688 31.5088L19.8433 35.8833L15.4688 40.2579L11.0957 35.8833Z" fill="#FF8736"/>
<path d="M22.2104 15.1939L26.5851 10.8193L30.9596 15.1939L26.5851 19.5685L22.2104 15.1939Z" fill="#ED4C5C"/>
<path d="M69.9268 67.592L74.3014 63.2158L78.6759 67.592L74.3014 71.9665L69.9268 67.592Z" fill="#C28FEF"/>
<path d="M60.1787 82.5865L64.5532 78.2119L68.9294 82.5881L64.5532 86.9626L60.1787 82.5865Z" fill="#ED4C5C"/>
<path d="M79.3228 86.0168L83.6974 81.6406L88.0719 86.0168L83.6974 90.3913L79.3228 86.0168Z" fill="#FF8736"/>
<path d="M83.652 66.1L88.0265 61.7254L92.4011 66.1L88.0265 70.4761L83.652 66.1ZM76.3477 19.8361L80.7222 15.46L85.0983 19.8361L80.7237 24.2106L76.3477 19.8361Z" fill="#42ADE2"/>
<path d="M29.458 46.0845L33.8342 41.71L38.2087 46.0845L33.8342 50.4606L29.458 46.0845Z" fill="#ED4C5C"/>
</svg>
