<svg width="61" height="61" viewBox="0 0 61 61" fill="none" xmlns="http://www.w3.org/2000/svg">
<path d="M1.79688 34.1837L9.58391 26.5111L22.8419 24.1616L21.5313 31.1004L3.60781 36.6094L2.44977 36.109L1.79688 34.1837Z" fill="#CA2C31"/>
<path d="M10.9322 28.4792L2.47803 36.1613L8.69717 39.1923L18.1379 34.3742V32.101L20.0679 26.897L10.9322 28.4792ZM30.9383 42.0088L26.8542 43.7816L22.9988 51.9546C22.9988 51.9546 26.3919 59.47 26.5444 59.47C26.6969 59.47 28.627 59.6225 28.627 59.6225L35.4895 51.9499L37.2242 38.8444L30.9383 42.0088Z" fill="#A02422"/>
<path d="M26.9257 48.0566C26.9257 48.0566 29.1989 47.5943 30.8192 46.8223C32.4395 46.0503 34.4411 44.897 34.4411 44.897L33.7072 51.2972L26.5349 59.4607C26.5349 59.4607 26.2538 59.1128 25.0623 56.5203C24.114 54.4521 23.7852 53.7134 23.7852 53.7134L26.9257 48.0566Z" fill="#CA2C31"/>
<path d="M15.0497 38.4397C15.0497 38.4397 12.3142 38.2109 9.31661 41.9996C6.58114 45.4594 5.29918 51.0924 4.80356 52.5412C4.30793 53.9899 3.12129 54.2854 3.51684 54.9478C3.91239 55.6102 5.62325 55.5721 7.73442 55.31C9.84559 55.0479 11.6565 54.3854 11.6565 54.3854C11.6565 54.3854 11.566 54.6142 11.261 55.1098C11.1514 55.2862 10.7701 55.5387 10.7987 55.8008C10.8654 56.4251 16.2125 56.4394 20.4825 52.0455C25.0956 47.3037 22.8557 43.415 22.8557 43.415L15.0497 38.4397Z" fill="#F7D74D"/>
<path d="M15.8743 40.646C15.8743 40.646 12.9244 40.8033 10.4844 44.5919C8.04441 48.3806 6.91019 52.7697 7.14371 53.0652C7.37246 53.3607 11.9189 51.7165 13.0102 52.0454C13.7584 52.2741 13.3724 53.0319 13.5725 53.232C13.7393 53.3988 15.7123 53.68 18.9053 50.2201C22.103 46.7603 21.3453 41.8994 21.3453 41.8994L15.8743 40.646Z" fill="#FBF0B4"/>
<path d="M17.323 35.4751C17.323 35.4751 15.8409 36.7952 15.3119 37.5529C14.7829 38.3106 14.7829 38.3774 14.8162 38.6061C14.8496 38.8349 15.3977 41.3463 17.6804 43.5481C20.4826 46.2502 22.9845 46.6124 23.3467 46.6124C23.7089 46.6124 26.1155 43.9103 26.1155 43.9103L17.323 35.4751Z" fill="#858585"/>
<path d="M23.876 43.4817C23.876 43.4817 26.2779 45.0591 30.3048 43.7056C35.8091 41.8566 39.8456 37.72 44.8447 32.4969C49.6675 27.4549 53.7136 21.1976 53.7136 21.1976L50.878 11.6997L23.876 43.4817Z" fill="#437687"/>
<path d="M32.4014 38.2824L33.0638 36.2236L34.7222 36.4571C34.7222 36.4571 35.9851 37.0529 36.9144 37.4865C37.8437 37.9202 39.0399 38.249 39.0399 38.249L36.6809 40.2411C36.6809 40.2411 35.3942 39.755 34.4554 39.3451C33.3974 38.8828 32.4014 38.2824 32.4014 38.2824Z" fill="#3F545F"/>
<path d="M40.1836 7.69189C40.1836 7.69189 35.5991 10.3511 29.0273 16.5703C23.1036 22.1746 18.7145 27.2453 17.6517 31.5581C16.7653 35.1705 17.2371 37.3627 19.253 39.7312C21.3832 42.2379 23.8804 43.4817 23.8804 43.4817C23.8804 43.4817 25.7581 43.5103 33.5928 37.4818C43.3671 29.9569 51.197 17.3566 51.197 17.3566L40.1836 7.69189Z" fill="#8DAFBF"/>
<path d="M49.6481 19.9394C49.6481 19.9394 45.6593 18.2381 42.8142 14.2683C39.9882 10.3271 40.2122 7.66315 40.2122 7.66315C40.2122 7.66315 42.576 5.80932 47.8896 3.68862C51.4638 2.2637 56.3295 1.53456 57.9308 2.7212C59.532 3.90784 56.8347 9.8601 56.8347 9.8601L51.9213 19.3723L49.6481 19.9394Z" fill="#D83F22"/>
<path d="M32.4873 38.3156C32.4873 38.3156 29.0418 36.5571 26.8496 34.0551C22.7035 29.3324 21.8457 24.1474 21.8457 24.1474L23.9283 21.7026C23.9283 21.7026 24.4477 27.2117 28.8941 31.9726C31.7916 35.075 34.8177 36.4951 34.8177 36.4951C34.8177 36.4951 34.2125 37.0051 33.5644 37.5007C33.1498 37.82 32.4873 38.3156 32.4873 38.3156Z" fill="#6896A5"/>
<path d="M53.7135 21.1975C53.7135 21.1975 55.7818 18.7051 57.7405 13.0864C60.4759 5.2517 58.0931 2.87842 58.0931 2.87842C58.0931 2.87842 57.2877 6.60514 54.4903 11.7854C52.2457 15.9362 49.5293 19.8869 49.5293 19.8869C49.5293 19.8869 51.0257 20.5589 51.8359 20.7924C52.8557 21.0879 53.7135 21.1975 53.7135 21.1975Z" fill="#A02422"/>
<path d="M18.9722 33.1974C19.5917 33.7883 20.5306 33.1688 21.1453 31.7201C21.7649 30.2713 21.7553 29.4612 21.2788 29.118C20.6878 28.6891 19.6966 29.628 19.2629 30.4619C18.7863 31.3865 18.5052 32.7494 18.9722 33.1974ZM40.4842 9.59326C40.4842 9.59326 36.8576 12.2001 32.9879 15.7457C29.4375 19.0006 27.0833 21.5455 26.7592 22.1364C26.4161 22.7702 26.4113 23.6662 26.6782 24.1237C26.9451 24.5812 27.536 24.8194 28.0745 24.4191C28.6131 24.014 32.4494 19.7726 35.914 16.7417C39.0831 13.9681 41.5279 12.2096 41.5279 12.2096C41.5279 12.2096 42.5191 10.4558 42.3571 10.0555C42.1951 9.65045 40.4842 9.59326 40.4842 9.59326Z" fill="#B3E1EE"/>
<path d="M40.4839 9.59334C40.4839 9.59334 43.1622 7.53935 46.0787 6.09537C48.7904 4.75146 51.4877 3.63154 51.9738 4.60373C52.4361 5.52826 49.4147 6.78639 46.7555 8.48295C44.0962 10.1795 41.5371 12.2049 41.5371 12.2049C41.5371 12.2049 41.1463 11.4901 40.8937 10.8276C40.7335 10.4244 40.5967 10.0123 40.4839 9.59334Z" fill="#ED6A65"/>
<path d="M42.6952 18.7051C40.0407 16.2603 36.3474 16.918 34.5269 19.0911C32.6588 21.3309 32.797 24.7526 35.0035 26.8114C37.0098 28.6795 40.7413 29.1037 42.9907 26.4826C44.9922 24.1569 44.8683 20.7019 42.6952 18.7051Z" fill="#E1E1E1"/>
<path d="M35.8992 19.9539C34.3218 21.5027 34.4076 24.5718 36.2852 25.9729C37.9246 27.1976 40.2502 27.1357 41.7085 25.6441C43.1668 24.1524 43.1668 21.4408 41.7991 20.0397C40.2264 18.4337 37.7054 18.1811 35.8992 19.9539Z" fill="#3F545F"/>
<path d="M23.828 36.643C23.828 36.643 26.7779 33.6502 27.102 33.9742C27.4261 34.2983 27.3832 36.114 25.9725 38.1346C24.5571 40.1553 21.4452 43.7533 18.9814 46.179C16.5509 48.5666 13.1244 51.2973 12.8003 51.2496C12.5478 51.2115 11.5232 50.7016 11.1133 50.206C10.713 49.7151 11.9092 47.3942 12.3905 46.627C12.8766 45.8597 23.828 36.643 23.828 36.643Z" fill="#A02524"/>
<path d="M10.1172 48.5379C10.0791 49.2242 11.1275 50.225 11.1275 50.225L27.1019 33.9789C27.1019 33.9789 26.3537 33.1354 24.152 34.5032C21.9312 35.8852 19.9868 37.5436 17.1179 40.322C13.1196 44.2012 10.1554 47.8517 10.1172 48.5379Z" fill="#CA2C31"/>
<path d="M9.08305 17.6092C8.55407 18.1382 8.53024 18.9864 9.12118 19.4725C9.6454 19.9062 10.4984 19.625 10.8177 19.2342C11.137 18.8435 11.0989 17.9952 10.6748 17.5758C10.2506 17.1517 9.40712 17.2899 9.08305 17.6092Z" fill="white"/>
<path opacity="0.5" d="M19.5484 16.9894C19.1481 17.4326 19.2768 18.0902 19.6485 18.3333C20.0202 18.5763 20.5778 18.5525 20.8495 18.2189C21.0925 17.9187 21.1211 17.3182 20.7494 16.9465C20.4253 16.6272 19.8058 16.7034 19.5484 16.9894Z" fill="white"/>
<path d="M26.473 5.66643C26.473 5.66643 27.0544 4.00799 27.3975 3.98893C27.7454 3.96987 28.2458 5.64737 28.2458 5.64737C28.2458 5.64737 29.9662 5.66643 30.0806 5.91901C30.2283 6.24307 28.9797 7.32963 28.9797 7.32963C28.9797 7.32963 29.3848 8.94995 29.1942 9.14534C28.9797 9.35979 27.4976 8.50674 27.4976 8.50674C27.4976 8.50674 25.9726 9.56948 25.6438 9.27877C25.3578 9.0262 25.9536 7.31057 25.9536 7.31057C25.9536 7.31057 24.5239 6.2669 24.6001 5.9762C24.7097 5.56635 26.473 5.66643 26.473 5.66643ZM46.2313 45.4308C46.8079 45.7501 47.5323 45.569 47.7992 44.9542C48.0422 44.4062 47.5943 43.7533 47.1892 43.577C46.7841 43.4007 46.074 43.6342 45.8167 44.0964C45.5641 44.5539 45.8834 45.2402 46.2313 45.4308ZM54.4186 31.377C54.0898 30.8671 53.3797 30.7003 52.9175 31.1101C52.4695 31.5104 52.5791 32.1395 52.8317 32.4588C53.0843 32.7781 53.761 32.8972 54.1708 32.6351C54.5807 32.373 54.6188 31.682 54.4186 31.377Z" fill="white"/>
</svg>
