<svg width="16" height="14" viewBox="0 0 16 14" fill="none" xmlns="http://www.w3.org/2000/svg">
<path d="M5.026 13.5003C11.064 13.5003 14.367 8.49733 14.367 4.16633C14.367 4.02633 14.367 3.88433 14.361 3.74433C15.0041 3.27881 15.5591 2.70248 16 2.04233C15.3993 2.30718 14.7628 2.48173 14.111 2.56033C14.7975 2.14996 15.3117 1.5043 15.558 0.743327C14.913 1.12545 14.207 1.3937 13.471 1.53633C12.9762 1.00935 12.3214 0.660245 11.6081 0.543084C10.8948 0.425924 10.1627 0.547248 9.52534 0.888264C8.88796 1.22928 8.38081 1.77096 8.08245 2.42939C7.78409 3.08782 7.71118 3.82626 7.875 4.53033C6.56974 4.46488 5.29282 4.12579 4.12704 3.53507C2.96127 2.94434 1.93268 2.11517 1.108 1.10133C0.68934 1.82441 0.561574 2.67973 0.750646 3.49359C0.939718 4.30746 1.43145 5.01886 2.126 5.48333C1.60554 5.46564 1.09652 5.32589 0.64 5.07533V5.12033C0.640897 5.87781 0.903307 6.61175 1.38287 7.19809C1.86244 7.78443 2.52975 8.1872 3.272 8.33833C2.99026 8.41594 2.69923 8.45463 2.407 8.45333C2.20098 8.45395 1.99538 8.43486 1.793 8.39633C2.00279 9.04838 2.41127 9.61849 2.96125 10.0268C3.51122 10.4351 4.17513 10.6612 4.86 10.6733C3.69656 11.5871 2.2594 12.0827 0.78 12.0803C0.519321 12.0814 0.258823 12.0664 0 12.0353C1.50151 12.9926 3.2453 13.5009 5.026 13.5003V13.5003Z" fill="white"/>
</svg>
