<svg width="12" height="10" viewBox="0 0 12 10" fill="none" xmlns="http://www.w3.org/2000/svg">
<path d="M5.35718 7.65306C5.35718 7.81544 5.4249 7.97117 5.54546 8.08598C5.66601 8.2008 5.82951 8.26531 6 8.26531C6.17049 8.26531 6.33399 8.2008 6.45454 8.08598C6.57509 7.97117 6.64282 7.81544 6.64282 7.65306C6.64282 7.49068 6.57509 7.33496 6.45454 7.22014C6.33399 7.10532 6.17049 7.04082 6 7.04082C5.82951 7.04082 5.66601 7.10532 5.54546 7.22014C5.4249 7.33496 5.35718 7.49068 5.35718 7.65306V7.65306ZM5.57145 3.77551V6.12245C5.57145 6.17857 5.61966 6.22449 5.67859 6.22449H6.32141C6.38034 6.22449 6.42855 6.17857 6.42855 6.12245V3.77551C6.42855 3.71939 6.38034 3.67347 6.32141 3.67347H5.67859C5.61966 3.67347 5.57145 3.71939 5.57145 3.77551ZM11.9421 9.38776L6.37096 0.204082C6.28793 0.067602 6.14463 0 6 0C5.85537 0 5.71073 0.067602 5.62904 0.204082L0.0579254 9.38776C-0.106797 9.66071 0.0994409 10 0.428887 10H11.5711C11.9006 10 12.1068 9.66071 11.9421 9.38776ZM1.44936 9.03189L6 1.52934L10.5506 9.03189H1.44936V9.03189Z" fill="#FD0505" fill-opacity="0.65"/>
</svg>
