<svg width="16" height="16" viewBox="0 0 16 16" fill="none" xmlns="http://www.w3.org/2000/svg">
<path d="M10.8687 5.1377C10.9149 5.33492 10.946 5.53617 10.9701 5.73742C10.9822 5.83805 10.9912 5.93968 10.9972 6.04131C11.0043 6.14294 11.0083 6.24457 11.0093 6.3462C11.0123 6.55047 11.0033 6.75474 10.9761 6.96002C10.9631 7.06265 10.944 7.16429 10.9189 7.26592L10.8988 7.34139C10.8908 7.36654 10.8827 7.3917 10.8747 7.41585L10.8687 7.43497L10.8616 7.45308L10.8476 7.49031C10.8426 7.50239 10.8385 7.51446 10.8325 7.52754L10.8164 7.56377L10.8004 7.59999C10.7953 7.61207 10.7883 7.62414 10.7813 7.63521L10.7622 7.67043L10.7441 7.70364C10.7321 7.72477 10.72 7.74489 10.709 7.76703C10.6979 7.78816 10.6869 7.8103 10.6768 7.83143C10.6346 7.91898 10.6015 8.01054 10.5744 8.10513C10.5191 8.29431 10.489 8.49455 10.4599 8.69379C10.4307 8.89403 10.4006 9.09528 10.3433 9.2915C10.2861 9.48772 10.2057 9.67992 10.0952 9.854C10.0691 9.89827 10.038 9.94054 10.0089 9.9828C9.9938 10.0039 9.97773 10.0241 9.96166 10.0442L9.93755 10.0754L9.91244 10.1046L9.86222 10.1639L9.80898 10.2203L9.78186 10.2484C9.77282 10.2575 9.76378 10.2666 9.75474 10.2756L9.70151 10.33C9.55787 10.4728 9.40821 10.6107 9.25554 10.7435C9.10286 10.8774 8.94617 11.0062 8.78847 11.1319L8.55343 11.3191C8.51426 11.3503 8.47609 11.3815 8.43893 11.4127C8.40176 11.4439 8.3656 11.4761 8.32944 11.5083C8.29429 11.5405 8.26114 11.5737 8.23 11.6089C8.19887 11.6431 8.17074 11.6793 8.14563 11.7166L8.13659 11.7307L8.12755 11.7447L8.10746 11.7769L8.09541 11.7961L8.08938 11.8051L8.08235 11.8142L8.05523 11.8494C8.01807 11.8937 7.97688 11.9319 7.9347 11.9671C7.76294 12.105 7.56406 12.1915 7.35514 12.2348C7.25067 12.2569 7.1432 12.264 7.03673 12.2569L6.99655 12.2539C6.98349 12.2529 6.97044 12.2509 6.95637 12.2489C6.94332 12.2469 6.93026 12.2459 6.9172 12.2428L6.87803 12.2348C6.8258 12.2237 6.77457 12.2066 6.72535 12.1865C6.62692 12.1472 6.53752 12.0869 6.46118 12.0144C6.38585 11.942 6.32458 11.8574 6.27637 11.7679L6.29244 11.7578C6.35371 11.8373 6.42302 11.9088 6.50136 11.9661C6.57971 12.0235 6.66609 12.0678 6.75749 12.0939C6.8037 12.107 6.8499 12.1171 6.89711 12.1221L6.93227 12.1261C6.94432 12.1271 6.95637 12.1271 6.96742 12.1281C6.97948 12.1281 6.99052 12.1301 7.00258 12.1301H7.03773C7.13215 12.1281 7.22657 12.113 7.31797 12.0869C7.40938 12.0607 7.49777 12.0255 7.58113 11.9822C7.6645 11.939 7.74285 11.8846 7.81115 11.8252C7.8443 11.7941 7.87544 11.7619 7.90256 11.7286L7.92064 11.7025L7.92566 11.6964L7.92968 11.6894L7.93771 11.6763L7.94173 11.6703C7.94273 11.6683 7.94474 11.6663 7.94575 11.6632L7.95579 11.6451L7.96584 11.627L7.97688 11.6089C8.00702 11.5616 8.04016 11.5173 8.07532 11.4761C8.11047 11.4348 8.14864 11.3966 8.18581 11.3604C8.26214 11.2879 8.3415 11.2225 8.42185 11.1591C8.50221 11.0957 8.58156 11.0343 8.66191 10.974C8.82162 10.8522 8.98032 10.7314 9.13601 10.6047C9.2917 10.4789 9.44236 10.3481 9.59403 10.2173L9.65028 10.1679C9.65932 10.1599 9.66936 10.1518 9.6784 10.1428L9.70552 10.1176L9.75976 10.0683L9.812 10.016L9.83811 9.98984L9.86322 9.96267L9.91244 9.90834C9.94358 9.8701 9.97572 9.83387 10.0048 9.79362C10.035 9.75438 10.0621 9.71312 10.0892 9.67287L10.1274 9.60948C10.1334 9.59942 10.1394 9.58835 10.1455 9.57728L10.1625 9.54508C10.1686 9.53401 10.1746 9.52294 10.1796 9.51187L10.1957 9.47867C10.2057 9.45653 10.2168 9.43439 10.2258 9.41125C10.2449 9.36597 10.262 9.31867 10.2781 9.27238C10.3403 9.08321 10.3725 8.88498 10.3946 8.68574C10.4177 8.48549 10.4297 8.28324 10.4679 8.07998C10.487 7.97834 10.5121 7.87772 10.5483 7.7781C10.5573 7.75395 10.5673 7.72879 10.5774 7.70464C10.5874 7.68049 10.5995 7.65634 10.6095 7.63219L10.6176 7.61408L10.6246 7.59798L10.6397 7.56578C10.6497 7.54465 10.6577 7.52251 10.6668 7.49937C10.7009 7.40981 10.729 7.31824 10.7501 7.22265C10.7532 7.21057 10.7562 7.19951 10.7582 7.18743L10.7662 7.15121C10.7712 7.12705 10.7763 7.10391 10.7803 7.07976L10.7933 7.00731L10.8044 6.93486C10.8184 6.83725 10.8305 6.73965 10.8385 6.64003C10.8405 6.61487 10.8426 6.59072 10.8446 6.56557C10.8466 6.54041 10.8486 6.51626 10.8496 6.4911C10.8526 6.4418 10.8556 6.39149 10.8576 6.34218C10.8737 5.9437 10.8646 5.54221 10.8466 5.1387L10.8687 5.1377Z" fill="#333333"/>
<path d="M9.6483 6.2418C9.59005 6.30016 9.58703 6.40179 9.68547 6.36456C9.7839 6.32733 9.9195 6.34041 10.042 6.36456C10.1646 6.38871 10.5804 6.35148 10.6447 6.06873C10.706 5.79804 10.718 5.78597 10.718 5.78597C10.718 5.78597 10.5603 5.79402 10.4227 5.73666C10.2751 5.67528 9.93055 5.73666 9.7839 6.00734C9.66538 6.22469 9.69752 6.19249 9.6483 6.2418Z" fill="#333333"/>
<path d="M9.61816 5.97676C9.64127 5.88821 9.68546 5.8067 9.74171 5.73325C9.76983 5.69702 9.80198 5.66281 9.83814 5.63262C9.84718 5.62558 9.85622 5.61753 9.86526 5.61048L9.89438 5.59036L9.92452 5.57124C9.93456 5.5652 9.94561 5.56017 9.95566 5.55413C9.9657 5.5481 9.97675 5.54407 9.9878 5.53904L10.0039 5.532L10.0209 5.52596C10.043 5.51791 10.0661 5.51288 10.0892 5.50684C10.1355 5.49778 10.1837 5.49577 10.2299 5.49778C10.3233 5.50583 10.4127 5.53501 10.49 5.5813C10.4016 5.56218 10.3142 5.5491 10.2289 5.55313C10.1867 5.55615 10.1445 5.56118 10.1033 5.57124C10.0631 5.58231 10.023 5.5964 9.98579 5.61552C9.91046 5.65275 9.84316 5.70608 9.78189 5.76846C9.72162 5.83186 9.66738 5.90129 9.61816 5.97676Z" fill="#333333"/>
<path d="M10.9649 6.36447C11.4932 6.48723 11.7644 6.26586 12.3048 6.04448C12.8462 5.82311 13.2389 6.29101 13.2389 6.29101C13.2018 4.86214 12.5137 4.81283 12.3912 4.82591C12.2687 4.83799 12.121 5.07244 11.5555 4.83799C10.99 4.60353 10.7871 4.8561 10.7871 4.8561C10.7871 4.8561 10.8976 5.0654 10.9649 6.32825V6.36447Z" fill="#333333"/>
<path d="M10.2515 3.77246C10.3258 3.8429 10.4001 3.91032 10.4765 3.97472C10.5528 4.04012 10.6311 4.10151 10.7125 4.15685C10.7527 4.18502 10.7939 4.21018 10.836 4.23332C10.8782 4.25647 10.9214 4.27559 10.9636 4.28967C10.9747 4.29269 10.9847 4.29571 10.9958 4.29873C11.0068 4.30175 11.0168 4.30276 11.0289 4.30477C11.041 4.30678 11.052 4.30779 11.0641 4.3098C11.0761 4.31181 11.0882 4.31282 11.1002 4.31483C11.1484 4.31986 11.1976 4.32489 11.2479 4.32992C11.2981 4.33395 11.3483 4.33999 11.3985 4.34502C11.4488 4.35106 11.5 4.35709 11.5512 4.36514C11.6527 4.38124 11.7551 4.40439 11.8546 4.43659C11.954 4.46879 12.0504 4.51105 12.1398 4.56539C12.2292 4.61972 12.3106 4.68513 12.3789 4.76161C12.2875 4.71431 12.1971 4.67205 12.1047 4.63884C12.0122 4.60564 11.9178 4.57948 11.8214 4.55935C11.7732 4.54929 11.725 4.54023 11.6768 4.53218C11.6286 4.52514 11.5793 4.51709 11.5301 4.51105C11.4809 4.50501 11.4317 4.49897 11.3825 4.49394C11.3332 4.48791 11.283 4.48287 11.2318 4.47583C11.1816 4.46979 11.1303 4.46275 11.0791 4.45269C11.053 4.44766 11.0279 4.44262 11.0018 4.43558C10.9897 4.43256 10.9747 4.42854 10.9606 4.42451C10.9465 4.42049 10.9335 4.41546 10.9204 4.41042C10.816 4.36816 10.7306 4.30477 10.6502 4.23735C10.5709 4.16892 10.4996 4.09547 10.4333 4.01698C10.367 3.9405 10.3057 3.85799 10.2515 3.77246Z" fill="#333333"/>
<path d="M5.57956 4.45527C5.57956 4.45527 5.26014 4.09805 4.75592 4.35666C4.25169 4.61526 4.17836 4.41804 3.96944 4.36873C3.76052 4.31943 3.12169 4.35666 3.04736 5.71107C3.04736 5.71107 3.61286 5.31662 4.01866 5.57523C4.42445 5.83384 5.01406 5.93245 5.21093 5.85798C5.21093 5.85899 5.0693 5.12644 5.57956 4.45527Z" fill="#333333"/>
<path d="M5.8225 6.44654C5.8225 6.44654 5.73712 6.18994 5.59449 6.01788C5.45186 5.84681 5.32429 5.81763 5.25298 5.84681C5.18166 5.87499 5.18166 6.28956 5.48099 6.33183C5.78031 6.37509 5.8225 6.44654 5.8225 6.44654Z" fill="#333333"/>
<path d="M5.74462 5.8834C5.70745 5.84718 5.67029 5.81196 5.63011 5.78077C5.59094 5.74857 5.54975 5.72039 5.50556 5.69725C5.46136 5.6741 5.41616 5.65498 5.36795 5.64593C5.31974 5.63587 5.26952 5.63486 5.21729 5.6409C5.24139 5.62983 5.2665 5.62178 5.29262 5.61775C5.31873 5.61373 5.34585 5.61172 5.37297 5.61473C5.42621 5.61977 5.47844 5.63687 5.52565 5.66203C5.57286 5.68819 5.61504 5.72039 5.65221 5.75762C5.68837 5.79485 5.72151 5.83712 5.74462 5.8834Z" fill="#333333"/>
<path d="M8.44492 10.2551C8.41478 10.4383 8.36255 10.6174 8.29726 10.7925C8.26412 10.88 8.22595 10.9656 8.18376 11.0491C8.16267 11.0913 8.14057 11.1326 8.11646 11.1728C8.09336 11.2131 8.06825 11.2533 8.04214 11.2926C7.93667 11.4486 7.8081 11.5924 7.65241 11.7062L7.62328 11.7273L7.59315 11.7474C7.57306 11.7615 7.55197 11.7726 7.53188 11.7856C7.51079 11.7967 7.48969 11.8098 7.4676 11.8199L7.43445 11.836L7.4013 11.85C7.31191 11.8883 7.21749 11.9155 7.12207 11.9316C6.93022 11.9638 6.73235 11.9497 6.54652 11.9074C6.45311 11.8863 6.3607 11.8591 6.2703 11.8239C6.2472 11.8158 6.2251 11.8048 6.20301 11.7957C6.18091 11.7856 6.15881 11.7746 6.13671 11.7635L6.10457 11.7464L6.0885 11.7373L6.07243 11.7283L6.04129 11.7092L6.01015 11.689L5.99509 11.679L5.98002 11.6679L5.94989 11.6458C5.9308 11.6297 5.91071 11.6146 5.89263 11.5975C5.87355 11.5814 5.85647 11.5633 5.83839 11.5452C5.82935 11.5361 5.82132 11.527 5.81328 11.518C5.80424 11.5089 5.79621 11.4989 5.78918 11.4898C5.77311 11.4707 5.75804 11.4506 5.74297 11.4304C5.72891 11.4093 5.71485 11.3892 5.70179 11.367C5.67568 11.3238 5.65257 11.2795 5.63349 11.2332C5.59532 11.1406 5.57021 11.044 5.55615 10.9464C5.54209 10.8488 5.53807 10.7512 5.54108 10.6546C5.54811 10.4614 5.58427 10.2733 5.62947 10.0911L5.66362 9.95628C5.66965 9.93415 5.67467 9.91201 5.67969 9.89088C5.68472 9.86975 5.68974 9.84761 5.69074 9.83151C5.69074 9.8295 5.69175 9.82748 5.69175 9.82547C5.69175 9.82447 5.69175 9.82245 5.69175 9.82145V9.80434C5.69175 9.79226 5.69275 9.78019 5.69275 9.76811C5.69376 9.74396 5.69576 9.71881 5.69777 9.69466C5.7028 9.64535 5.71083 9.59504 5.72489 9.54573C5.73192 9.52058 5.73996 9.49542 5.75101 9.47127C5.76005 9.45014 5.76808 9.43001 5.77612 9.40888C5.79219 9.36763 5.80625 9.32536 5.81831 9.2831C5.83036 9.24084 5.8404 9.19757 5.84944 9.1543C5.85748 9.11103 5.86351 9.06776 5.86752 9.02349C5.87154 8.98022 5.87355 8.93594 5.87255 8.89167C5.87255 8.86953 5.87154 8.84739 5.87054 8.82626C5.86953 8.80413 5.86752 8.78098 5.86551 8.75884C5.85748 8.66929 5.84442 8.58074 5.82031 8.49923C5.81429 8.47911 5.80726 8.45898 5.79922 8.44087C5.7952 8.43181 5.79119 8.42276 5.78616 8.41471C5.78415 8.41068 5.78114 8.40666 5.77913 8.40263L5.77511 8.39659L5.77009 8.38854C5.74197 8.34427 5.72088 8.29899 5.7028 8.25371C5.66764 8.16314 5.64253 8.07157 5.62144 7.979C5.58126 7.79485 5.55615 7.6097 5.53907 7.42355C5.53104 7.33097 5.52601 7.23739 5.523 7.14381C5.522 7.12067 5.522 7.09752 5.51999 7.07538C5.51898 7.05325 5.51697 7.0301 5.51396 7.00797C5.50894 6.96268 5.50191 6.91841 5.49186 6.87313C5.47278 6.78357 5.44465 6.69603 5.4095 6.6115C5.40046 6.59037 5.39142 6.56924 5.38338 6.5461C5.37535 6.52396 5.36932 6.50182 5.36329 6.47868C5.35225 6.4334 5.34622 6.38711 5.34521 6.34082C5.35124 6.38711 5.36129 6.43239 5.37535 6.47566C5.38238 6.4978 5.39041 6.51893 5.40046 6.54006C5.4095 6.56119 5.42055 6.58031 5.4316 6.60144C5.47378 6.68496 5.50894 6.7715 5.53505 6.86206C5.54811 6.90734 5.55916 6.95363 5.5672 6.99992C5.57121 7.02306 5.57423 7.0462 5.57724 7.07035C5.58025 7.0935 5.58226 7.11765 5.58427 7.13978C5.59331 7.23135 5.60336 7.32292 5.61742 7.41349C5.64353 7.59562 5.67568 7.77674 5.72389 7.95284C5.74799 8.04038 5.77511 8.12692 5.81027 8.20742C5.82835 8.24767 5.84743 8.28591 5.87054 8.31911L5.88058 8.33421C5.8846 8.34024 5.88862 8.34628 5.89163 8.35131C5.89866 8.36339 5.90469 8.37446 5.91071 8.38653C5.92277 8.41068 5.93181 8.43382 5.93984 8.45797C5.97199 8.55357 5.98806 8.64816 5.99911 8.74274C6.00212 8.76689 6.00413 8.79004 6.00614 8.81419C6.00814 8.83834 6.01015 8.86249 6.01015 8.88764C6.01216 8.93594 6.01116 8.98525 6.00815 9.03355C6.00513 9.08185 5.9991 9.13015 5.99107 9.17845C5.98303 9.22675 5.97199 9.27405 5.95993 9.32033C5.94788 9.36763 5.93281 9.41391 5.91574 9.4592C5.9077 9.48133 5.89866 9.50448 5.88962 9.52661C5.88259 9.54473 5.87656 9.56385 5.87054 9.58397C5.86049 9.62321 5.85346 9.66548 5.84944 9.70774C5.84743 9.72887 5.84643 9.75101 5.84543 9.77214C5.84543 9.78321 5.84442 9.79428 5.84442 9.80535V9.82245L5.84342 9.83553C5.84342 9.83956 5.84241 9.84358 5.84241 9.84761C5.8394 9.87679 5.83337 9.90094 5.82835 9.92509C5.82333 9.94924 5.8173 9.97138 5.81228 9.99452L5.77913 10.1294C5.73594 10.3065 5.7038 10.4846 5.69677 10.6617C5.68974 10.8388 5.70983 11.0149 5.77511 11.1728C5.79119 11.2121 5.81027 11.2503 5.83136 11.2865C5.84141 11.3047 5.85346 11.3228 5.86551 11.3399C5.87857 11.357 5.89063 11.3741 5.90368 11.3902C5.91071 11.3982 5.91674 11.4063 5.92377 11.4143C5.9308 11.4224 5.93783 11.4304 5.94487 11.4385C5.95993 11.4536 5.97399 11.4687 5.99006 11.4828C6.00513 11.4979 6.02221 11.5109 6.03828 11.525L6.06339 11.5441L6.07645 11.5542L6.0895 11.5633L6.11562 11.5814L6.14274 11.5985L6.1568 11.6075L6.17086 11.6156L6.19899 11.6317C6.21807 11.6418 6.23716 11.6518 6.25725 11.6609C6.27733 11.6699 6.29642 11.68 6.31751 11.688C6.39887 11.7223 6.48325 11.7494 6.57063 11.7706C6.65701 11.7927 6.7444 11.8078 6.83279 11.8138C6.92018 11.8209 7.00857 11.8199 7.09595 11.8078C7.26972 11.7857 7.43746 11.7212 7.58512 11.6226L7.59918 11.6136L7.61324 11.6035L7.64036 11.5844C7.65744 11.5703 7.67652 11.5572 7.69359 11.5431C7.72875 11.515 7.76089 11.4848 7.79404 11.4536C7.82618 11.4224 7.85732 11.3892 7.88645 11.355C7.91558 11.3208 7.9447 11.2855 7.97182 11.2493C8.08131 11.1044 8.17271 10.9444 8.25005 10.7774C8.28923 10.6939 8.32338 10.6083 8.35552 10.5218C8.39268 10.4332 8.42081 10.3457 8.44492 10.2551Z" fill="#333333"/>
<path d="M7.04389 10.2563C6.7757 10.2151 6.71644 10.5119 6.71644 10.5119C6.71644 10.5119 6.70138 10.2101 6.43018 10.2201C6.15898 10.2292 5.88477 9.84277 5.88477 9.84277C5.91691 9.92126 6.06556 10.1346 6.14893 10.1909C6.2323 10.2473 6.24134 10.2171 6.27851 10.3006C6.44625 10.678 6.64914 10.7313 6.65919 10.7575C6.67024 10.7836 6.68932 11.1046 6.68932 11.1046C6.68932 11.1046 6.74356 10.7886 6.75762 10.7635C6.77169 10.7383 6.98764 10.678 7.18652 10.355C7.23473 10.2775 7.23875 10.3067 7.32714 10.2614C7.41553 10.2151 7.58629 10.0209 7.62747 9.94742C7.62747 9.94642 7.31308 10.2976 7.04389 10.2563Z" fill="#333333"/>
<path d="M3.59473 4.31272C3.63089 4.26643 3.67408 4.22618 3.71928 4.18794C3.76448 4.15071 3.81369 4.1165 3.86492 4.08631C3.96737 4.02594 4.07887 3.97864 4.19438 3.94644C4.25263 3.93034 4.31089 3.91827 4.37116 3.90821C4.38622 3.90619 4.40129 3.90418 4.41636 3.90217L4.46156 3.89714C4.49169 3.89412 4.52082 3.89211 4.55095 3.8911C4.66948 3.88506 4.78599 3.88808 4.9015 3.8911C5.13152 3.89714 5.35752 3.90519 5.57649 3.86393C5.68597 3.84381 5.79244 3.81161 5.89288 3.76331C5.99433 3.715 6.08975 3.6506 6.17915 3.57715C6.11185 3.67274 6.02748 3.75727 5.92904 3.82569C5.83061 3.89412 5.71912 3.94443 5.6026 3.97764C5.48709 4.01084 5.36756 4.02896 5.24904 4.036C5.13051 4.04405 5.013 4.04304 4.89748 4.04103C4.78197 4.03902 4.66747 4.03499 4.55497 4.036C4.52685 4.03701 4.49872 4.03701 4.4706 4.03801L4.42942 4.04002C4.41535 4.04103 4.4023 4.04204 4.38823 4.04304C4.33299 4.04707 4.27775 4.05512 4.22351 4.06417C4.11402 4.0843 4.00554 4.11348 3.90108 4.15474C3.79361 4.19801 3.69115 4.24731 3.59473 4.31272Z" fill="#333333"/>
<path d="M5.62962 7.78223C5.61958 7.81845 5.60753 7.85468 5.59447 7.8909C5.58141 7.92612 5.56735 7.96235 5.55329 7.99756C5.52416 8.068 5.49302 8.13743 5.45887 8.20485C5.39057 8.3407 5.31322 8.47252 5.22885 8.5993C5.0591 8.85288 4.8562 9.08532 4.6282 9.2916C4.56994 9.34192 4.51269 9.39223 4.45142 9.43852C4.39115 9.48682 4.32787 9.53009 4.26559 9.57436L4.16917 9.63675L4.14506 9.65184C4.13703 9.65687 4.12899 9.6619 4.12095 9.66694L4.07073 9.69511L4.02051 9.72329C4.00344 9.73234 3.98736 9.74241 3.97029 9.75046L3.86784 9.80278L3.84272 9.81586L3.81661 9.82794L3.76438 9.85108L3.71215 9.87422C3.70311 9.87825 3.69507 9.88227 3.68603 9.88529L3.65891 9.89536L3.55144 9.93561L3.52432 9.94567L3.4972 9.95472L3.44296 9.97183L3.38872 9.98894L3.3616 9.99699C3.35256 10 3.34352 10.002 3.33347 10.004C3.29631 10.0131 3.26015 10.0221 3.22299 10.0312C3.18582 10.0403 3.14866 10.0473 3.11149 10.0533C3.07433 10.0594 3.03716 10.0664 3 10.0714C3.03516 10.0574 3.07031 10.0443 3.10547 10.0312L3.1587 10.0121L3.17176 10.007L3.18482 10.002L3.21093 9.99095C3.24508 9.97586 3.28024 9.96277 3.31439 9.94869C3.32343 9.94466 3.33147 9.94164 3.34051 9.93762L3.36562 9.92554L3.41684 9.9024L3.46807 9.87926L3.49318 9.86819L3.51829 9.85511L3.61773 9.80479L3.64284 9.79272L3.66695 9.77964L3.71617 9.75247L3.76538 9.7253L3.78949 9.71222L3.8136 9.69813L3.90902 9.64077C3.92509 9.63172 3.94016 9.62165 3.95623 9.61159L4.00243 9.5814L4.04864 9.55122C4.0637 9.54115 4.07877 9.53009 4.09383 9.52002L4.18423 9.45663C4.24249 9.41135 4.30276 9.36909 4.35901 9.32079C4.41726 9.2755 4.47251 9.2262 4.52775 9.1779C4.74672 8.98067 4.94962 8.76332 5.13343 8.52887C5.22584 8.41214 5.31222 8.29139 5.39559 8.16661C5.47795 8.04285 5.5573 7.91505 5.62962 7.78223Z" fill="#333333"/>
<path d="M9.6474 10.3508C9.53992 10.5933 9.43245 10.8338 9.331 11.0763C9.28077 11.1971 9.23156 11.3188 9.18435 11.4406L9.04574 11.8069C9.00054 11.9296 8.95433 12.0514 8.91516 12.1772C8.87599 12.3019 8.84284 12.4297 8.82275 12.5595C8.81873 12.5917 8.81371 12.625 8.8107 12.6572C8.80768 12.6894 8.80568 12.7226 8.80266 12.7548C8.80065 12.788 8.79764 12.8212 8.79563 12.8544C8.79463 12.8624 8.79463 12.8715 8.79362 12.8795L8.79061 12.9047L8.78559 12.955C8.76952 13.0878 8.74641 13.2207 8.71528 13.3515C8.65501 13.6141 8.55959 13.8667 8.44207 14.1082C8.38381 14.2289 8.32154 14.3477 8.25524 14.4644C8.18895 14.5811 8.11763 14.6938 8.04331 14.8045C7.89264 15.0249 7.72892 15.2362 7.55213 15.4364C7.46374 15.536 7.37334 15.6347 7.27993 15.7282C7.18652 15.8228 7.08909 15.9134 6.98764 15.9999L6.97559 15.9878C7.29701 15.5662 7.60738 15.1426 7.89163 14.7029C7.96295 14.5932 8.03326 14.4825 8.10156 14.3718C8.16986 14.2601 8.23616 14.1484 8.29843 14.0337C8.36171 13.919 8.41796 13.8023 8.47421 13.6845C8.50233 13.6262 8.52845 13.5658 8.55457 13.5064L8.59173 13.4159C8.60378 13.3857 8.61483 13.3545 8.62688 13.3243C8.67108 13.2015 8.70824 13.0758 8.72934 12.947L8.73737 12.8987C8.74039 12.8826 8.7424 12.8665 8.7434 12.8504C8.74641 12.8182 8.74943 12.786 8.75244 12.7527L8.75947 12.6531C8.76349 12.6199 8.7655 12.5867 8.76951 12.5535C8.78458 12.4207 8.80166 12.2889 8.82476 12.156C8.84786 12.0242 8.87498 11.8924 8.91215 11.7636C8.94831 11.6348 8.99351 11.508 9.04473 11.3853C9.09596 11.2615 9.15221 11.1407 9.21247 11.021C9.27274 10.9022 9.33803 10.7855 9.40733 10.6718C9.47764 10.5581 9.55097 10.4474 9.63434 10.3428L9.6474 10.3508Z" fill="#333333"/>
<path d="M6.07617 3.6726C6.09526 3.65046 6.11434 3.62732 6.13242 3.60417C6.1505 3.58103 6.16858 3.55789 6.18566 3.53374C6.21981 3.48644 6.25094 3.43713 6.27606 3.38682L6.2851 3.3677L6.29414 3.34858C6.30016 3.33651 6.30518 3.32242 6.31121 3.30833C6.32226 3.28117 6.33431 3.25299 6.34737 3.22482C6.37449 3.16847 6.40663 3.11312 6.44781 3.06281C6.4679 3.03765 6.49 3.0135 6.51411 2.99137C6.53821 2.96923 6.56333 2.9491 6.59045 2.92998C6.64368 2.89275 6.70194 2.86357 6.7622 2.84143C6.88173 2.79615 7.00729 2.77905 7.13083 2.77804C7.1921 2.77804 7.25438 2.78005 7.31565 2.79011C7.37692 2.79917 7.43819 2.81225 7.49745 2.83439C7.55672 2.85552 7.61296 2.8847 7.66419 2.91992C7.6893 2.93703 7.71441 2.95615 7.73751 2.97627C7.76062 2.9964 7.78271 3.01652 7.80481 3.03665C7.848 3.0769 7.89119 3.11715 7.9384 3.14834C7.98561 3.17953 8.03885 3.19966 8.09409 3.20872C8.12222 3.21375 8.15034 3.21475 8.17846 3.21475C8.20659 3.21475 8.23371 3.21173 8.25982 3.2057C8.31205 3.19262 8.36027 3.16746 8.40446 3.13425C8.44866 3.10105 8.49084 3.0618 8.53203 3.02055C8.57421 2.9803 8.6174 2.93703 8.66461 2.89778C8.71182 2.85753 8.76405 2.8203 8.8203 2.78911C8.87655 2.75792 8.93882 2.73376 9.0021 2.71766C9.06538 2.70156 9.13067 2.69351 9.19496 2.69251C9.25924 2.6915 9.32353 2.69653 9.3858 2.7076C9.41694 2.71263 9.44808 2.71968 9.47821 2.72672C9.50834 2.73477 9.53848 2.74282 9.56861 2.75188C9.59874 2.76093 9.62787 2.771 9.657 2.78206C9.68613 2.79313 9.71526 2.80521 9.74439 2.8193C9.80164 2.84647 9.85688 2.87867 9.90911 2.9159C9.96134 2.95413 10.0096 2.9974 10.0527 3.0457C10.0959 3.09501 10.1321 3.14935 10.1602 3.2067C10.1883 3.26406 10.2104 3.32443 10.2245 3.38582C10.2386 3.4472 10.2486 3.50757 10.2536 3.56795L10.2617 3.6565C10.2647 3.68467 10.2677 3.71385 10.2747 3.738C10.2767 3.74404 10.2787 3.75008 10.2808 3.75511L10.2828 3.75914C10.2838 3.76014 10.2838 3.76115 10.2848 3.76316L10.2908 3.77222C10.2988 3.78429 10.3069 3.79637 10.3159 3.80844C10.333 3.83259 10.3501 3.85574 10.3681 3.87888C10.4043 3.92517 10.4425 3.97045 10.4826 4.01372L10.4726 4.02479C10.4264 3.98655 10.3822 3.9463 10.34 3.90404C10.3189 3.8829 10.2988 3.86077 10.2787 3.83762C10.2687 3.82655 10.2587 3.81448 10.2496 3.80341L10.2426 3.79435C10.2406 3.79134 10.2366 3.78731 10.2346 3.78329C10.2295 3.77524 10.2245 3.76819 10.2215 3.76014C10.2064 3.72895 10.1984 3.69876 10.1914 3.66958L10.1703 3.58204C10.1632 3.55386 10.1562 3.52569 10.1492 3.49751C10.1411 3.47034 10.1331 3.44317 10.1231 3.416C10.104 3.36368 10.0799 3.31337 10.0517 3.26708C10.0236 3.22079 9.98947 3.17853 9.9513 3.14029C9.87496 3.06482 9.78155 3.00646 9.6791 2.96319C9.62887 2.94105 9.57564 2.92294 9.5214 2.90684C9.50834 2.90282 9.49428 2.89879 9.48122 2.89477L9.44004 2.8847C9.41292 2.87766 9.3858 2.87162 9.35868 2.86659C9.2502 2.84647 9.13971 2.84043 9.03626 2.86156C8.98402 2.87162 8.9338 2.88973 8.88559 2.91288C8.83738 2.93602 8.79017 2.96621 8.74497 2.99942C8.65256 3.06482 8.56517 3.14834 8.45468 3.21173C8.39944 3.24293 8.33817 3.26808 8.27288 3.27513C8.24074 3.27915 8.2086 3.28016 8.17645 3.27714C8.14532 3.27412 8.11418 3.2701 8.08405 3.26305C8.02278 3.24897 7.96452 3.2228 7.91329 3.18859C7.86207 3.15438 7.81787 3.11212 7.77367 3.07388C7.72948 3.03463 7.68428 2.99942 7.63406 2.97124C7.60895 2.95715 7.58384 2.94608 7.55772 2.93602C7.5316 2.92697 7.50448 2.91892 7.47636 2.91288C7.36587 2.88973 7.25237 2.89477 7.13786 2.90483C7.02436 2.9159 6.91287 2.93401 6.80941 2.97023C6.70596 3.00646 6.61254 3.0618 6.53922 3.1413C6.50205 3.18054 6.46991 3.22582 6.44078 3.27412C6.42572 3.29827 6.41165 3.32343 6.39759 3.34959C6.39056 3.36267 6.38353 3.37575 6.37449 3.38883L6.36244 3.40896L6.34938 3.42808C6.31322 3.4794 6.27304 3.52569 6.22885 3.56795C6.18465 3.61021 6.13845 3.64845 6.08923 3.68266L6.07617 3.6726Z" fill="#333333"/>
<path d="M7.52481 2.89248C7.43943 2.56243 7.34602 2.23741 7.23352 1.92145C7.17727 1.76347 7.115 1.6075 7.04669 1.45656C6.97739 1.30563 6.90105 1.15871 6.81567 1.01784C6.77248 0.947399 6.72728 0.879981 6.67706 0.814574C6.62784 0.749168 6.5736 0.687786 6.51434 0.631436C6.48521 0.603261 6.45307 0.577099 6.42093 0.551942C6.40486 0.539867 6.38778 0.526786 6.37071 0.516724L6.34459 0.499617L6.31747 0.483517C6.24616 0.440248 6.17183 0.401005 6.09549 0.365786C5.94281 0.296354 5.7811 0.246042 5.61637 0.216861C5.57519 0.209817 5.53401 0.203779 5.49182 0.198748C5.45064 0.194723 5.40845 0.191704 5.36727 0.189692C5.2839 0.185667 5.20154 0.189692 5.12018 0.199754C5.08 0.204786 5.03982 0.212836 5.00165 0.221892C4.98257 0.226923 4.96449 0.232961 4.94742 0.238998C4.93938 0.242017 4.93034 0.246042 4.92331 0.249061C4.91628 0.253086 4.91025 0.256104 4.90623 0.259123V0.262142C4.90623 0.262142 4.90623 0.262142 4.90623 0.263148H4.90724C4.90724 0.263148 4.90925 0.261136 4.91025 0.259123C4.91025 0.259123 4.91126 0.258117 4.91126 0.257111C4.91226 0.256104 4.91226 0.255098 4.91326 0.254092C4.91326 0.253086 4.91427 0.252079 4.91427 0.251073C4.91427 0.250067 4.91527 0.248054 4.91628 0.247048C4.91728 0.244029 4.91728 0.241011 4.91728 0.236986C4.91728 0.232961 4.91728 0.228936 4.91628 0.224911C4.91628 0.221892 4.91527 0.217867 4.91326 0.214848C4.91226 0.212836 4.91226 0.211829 4.91126 0.210823C4.91025 0.209817 4.91025 0.208811 4.90925 0.207804C4.90824 0.206798 4.90824 0.205792 4.90724 0.204786C4.90623 0.203779 4.90623 0.203779 4.90623 0.202773C4.90523 0.201767 4.90422 0.200761 4.90322 0.199754C4.90222 0.198748 4.90222 0.198748 4.90121 0.197742H4.90222C4.90322 0.197742 4.90422 0.198748 4.90523 0.198748L4.91527 0.200761L4.9444 0.207804C4.98458 0.216861 5.02576 0.225917 5.06795 0.235979C5.23569 0.273211 5.40544 0.325536 5.56715 0.406036C5.64751 0.446286 5.72586 0.49358 5.79818 0.54993C5.8705 0.60628 5.93779 0.671686 5.99605 0.746149C6.0533 0.820612 6.10152 0.903124 6.13567 0.990668C6.1437 1.01281 6.15274 1.03494 6.15977 1.05607C6.1668 1.07721 6.17283 1.09834 6.17986 1.11947L6.19794 1.18286C6.20397 1.20399 6.20899 1.22512 6.21502 1.24626C6.2572 1.41531 6.28834 1.58536 6.31345 1.75542C6.33856 1.92548 6.35765 2.09553 6.37171 2.2666C6.38577 2.43766 6.39481 2.60872 6.39682 2.77978C6.39783 2.86532 6.39682 2.95185 6.3928 3.03738C6.3918 3.05852 6.3908 3.08065 6.38879 3.10178C6.38778 3.12292 6.38477 3.14505 6.38276 3.16618C6.37975 3.18732 6.37774 3.20945 6.37272 3.23058C6.3687 3.25172 6.36368 3.27385 6.35564 3.29498L6.33756 3.28895C6.34459 3.2497 6.34158 3.20643 6.34057 3.16518C6.33856 3.12292 6.33455 3.08065 6.33053 3.0394C6.32249 2.95487 6.31144 2.87135 6.3004 2.78783C6.27729 2.61979 6.25118 2.45275 6.22305 2.28571C6.19493 2.11868 6.1648 1.95265 6.13165 1.78762C6.0985 1.62259 6.06234 1.45858 6.01915 1.29858C6.01313 1.27846 6.0081 1.25833 6.00308 1.23921L5.98601 1.17984C5.97998 1.15972 5.97395 1.1406 5.96793 1.12148C5.96491 1.11142 5.96089 1.10337 5.95788 1.09431L5.94784 1.06714C5.92072 0.9957 5.88355 0.929287 5.83835 0.867905C5.79315 0.806524 5.74092 0.750174 5.68066 0.699861C5.62039 0.649549 5.5551 0.605274 5.48479 0.567036C5.41448 0.528799 5.34116 0.494586 5.26482 0.465405C5.18848 0.436223 5.11013 0.410061 5.02978 0.384905C4.9896 0.371823 4.94942 0.359748 4.90724 0.346667C4.89719 0.343648 4.88614 0.339623 4.8751 0.335598L4.87108 0.333586L4.86606 0.331573C4.86204 0.330567 4.85902 0.328555 4.85501 0.327548L4.84396 0.321511C4.83994 0.319498 4.83492 0.31648 4.8309 0.313461C4.82588 0.309436 4.82086 0.306417 4.81583 0.302392C4.81282 0.299373 4.80981 0.297361 4.8078 0.294342C4.80679 0.292329 4.80579 0.291323 4.80378 0.289311C4.80278 0.287298 4.80077 0.285286 4.79976 0.283273C4.79876 0.281261 4.79675 0.279248 4.79574 0.277236C4.79474 0.275223 4.79374 0.273211 4.79173 0.270192C4.78972 0.264154 4.78771 0.258117 4.7857 0.253086C4.7847 0.247048 4.78369 0.240004 4.78369 0.232961C4.78369 0.225917 4.7847 0.220886 4.7867 0.214848C4.78771 0.211829 4.78871 0.208811 4.78871 0.206798C4.78972 0.204786 4.79072 0.202773 4.79173 0.199754C4.79374 0.195729 4.79675 0.190698 4.79876 0.187679C4.80278 0.181642 4.8078 0.175604 4.81182 0.171579L4.81784 0.165542C4.81985 0.163529 4.82186 0.162523 4.82387 0.16051L4.8299 0.156485L4.83492 0.153467C4.84898 0.14441 4.86204 0.138373 4.87409 0.134348C4.88614 0.129317 4.8982 0.126298 4.91025 0.122273C4.93335 0.116235 4.95646 0.111204 4.97956 0.108185C5.02476 0.101142 5.06895 0.0981229 5.11315 0.0971166C5.28993 0.0930916 5.46169 0.117242 5.62943 0.154473C5.79717 0.191704 5.96089 0.245036 6.1206 0.309436C6.15977 0.325536 6.19995 0.341636 6.23912 0.359748C6.25921 0.368805 6.2783 0.377861 6.29839 0.386917C6.31747 0.395973 6.33756 0.40503 6.35664 0.415092L6.38577 0.42918L6.4149 0.444273C6.43499 0.454336 6.45307 0.465405 6.47215 0.476474C6.50932 0.499617 6.54648 0.523767 6.58164 0.54993C6.65295 0.602255 6.71824 0.661624 6.77951 0.726024C6.84078 0.789418 6.89703 0.857843 6.94826 0.929287C7.05071 1.07217 7.13408 1.22714 7.20238 1.38713C7.27169 1.54612 7.32894 1.71014 7.37615 1.87617C7.42336 2.0422 7.46153 2.21025 7.48965 2.3793C7.51778 2.54835 7.53887 2.71941 7.54389 2.89047L7.52481 2.89248Z" fill="#333333"/>
<path d="M8.76025 2.83162C8.78536 2.72999 8.81751 2.63138 8.85065 2.53276C8.8848 2.43415 8.92096 2.33655 8.96014 2.23995C9.03848 2.04674 9.12788 1.85757 9.22732 1.67443C9.27654 1.58186 9.32977 1.4923 9.38502 1.40274C9.44126 1.31419 9.49952 1.22665 9.5618 1.14112C9.68534 0.971062 9.82396 0.809055 9.98165 0.667174C10.061 0.596736 10.1444 0.530323 10.2328 0.470955C10.3212 0.411586 10.4146 0.359261 10.512 0.314986C10.5361 0.303917 10.5612 0.293854 10.5853 0.283792C10.6104 0.274736 10.6345 0.263667 10.6607 0.255617L10.6988 0.242535L10.736 0.23046C10.7611 0.22241 10.7862 0.215367 10.8113 0.208323C10.8615 0.194235 10.9118 0.179142 10.962 0.16606C10.9871 0.159017 11.0122 0.152979 11.0373 0.145935L11.1127 0.127823C11.3145 0.0795227 11.5194 0.0422914 11.7274 0.0201539C11.9353 2.88256e-05 12.1442 -0.0100337 12.3561 0.0141163C12.4094 0.0201539 12.4626 0.0292101 12.5159 0.0432977C12.543 0.0503414 12.5701 0.0593977 12.5972 0.0704664C12.6243 0.0825415 12.6525 0.096629 12.6816 0.122792C12.6956 0.136879 12.7107 0.154992 12.7198 0.183167C12.7218 0.19021 12.7238 0.197254 12.7238 0.205304C12.7248 0.213354 12.7248 0.220398 12.7238 0.228448C12.7238 0.236498 12.7218 0.243542 12.7198 0.250586C12.7177 0.257629 12.7147 0.263667 12.7127 0.269704C12.7007 0.293854 12.6866 0.308948 12.6725 0.322029C12.6655 0.328067 12.6585 0.334104 12.6515 0.339136C12.6484 0.341148 12.6444 0.344167 12.6414 0.346179L12.6304 0.352217L12.6083 0.364292C12.6012 0.368317 12.5942 0.370329 12.5872 0.374354L12.5661 0.383411C12.559 0.386429 12.552 0.388442 12.545 0.390455L12.5239 0.397498C12.5169 0.399511 12.5098 0.401523 12.5028 0.40253C12.4887 0.405548 12.4747 0.409573 12.4616 0.412592C12.4074 0.424667 12.3551 0.431711 12.3029 0.438755L12.1502 0.45888C12.0498 0.472967 11.9524 0.490073 11.859 0.517242C11.7655 0.543405 11.6751 0.57963 11.5918 0.624911C11.5084 0.670192 11.4321 0.727549 11.3638 0.792955C11.2955 0.858362 11.2352 0.932824 11.182 1.01332C11.1277 1.09282 11.0845 1.18137 11.0433 1.26992C11.0243 1.3152 11.0042 1.36048 10.9881 1.40777L10.963 1.47821L10.9389 1.55167C10.9067 1.64928 10.8746 1.74688 10.8435 1.84449C10.7812 2.04071 10.7219 2.23693 10.6647 2.43516L10.5783 2.73301L10.5351 2.88193C10.52 2.93124 10.505 2.98155 10.4899 3.03086C10.4588 3.13048 10.4256 3.2301 10.3844 3.3267C10.3633 3.375 10.3392 3.42229 10.3111 3.46757C10.283 3.51285 10.2488 3.55512 10.2097 3.58933L10.1956 3.57625C10.2277 3.537 10.2529 3.49273 10.2739 3.44745C10.295 3.40116 10.3111 3.35387 10.3252 3.30456C10.3402 3.25626 10.3523 3.20595 10.3633 3.15664C10.3744 3.10633 10.3854 3.05702 10.3955 3.0057L10.4557 2.70181C10.4758 2.60018 10.4959 2.49855 10.518 2.39692C10.5622 2.19366 10.6104 1.9914 10.6647 1.79116C10.6777 1.74084 10.6918 1.69053 10.7059 1.64123C10.7209 1.59091 10.735 1.54161 10.75 1.49129L10.7721 1.41683C10.7802 1.39168 10.7892 1.36551 10.7973 1.34036C10.8133 1.28904 10.8344 1.23872 10.8545 1.18841C10.8646 1.16326 10.8766 1.13911 10.8887 1.11395L10.9057 1.07672C10.9118 1.06464 10.9188 1.05257 10.9248 1.04049C10.9379 1.01634 10.9509 0.992193 10.965 0.969049C10.9801 0.945905 10.9941 0.922762 11.0092 0.899618C11.0715 0.808049 11.1428 0.721511 11.2251 0.646042C11.3075 0.570574 11.4009 0.506173 11.5004 0.454855C11.5998 0.404542 11.7053 0.367311 11.8107 0.341148C11.9162 0.314986 12.0237 0.299892 12.1281 0.289829C12.1804 0.284798 12.2326 0.280773 12.2838 0.275742C12.3351 0.271717 12.3853 0.267692 12.4325 0.260648C12.4797 0.253604 12.5249 0.243542 12.558 0.227442L12.5641 0.224423C12.5661 0.223417 12.5681 0.22241 12.5701 0.221404C12.5741 0.219392 12.5771 0.217379 12.5801 0.215367C12.5852 0.211342 12.5892 0.207317 12.5892 0.208323C12.5892 0.208323 12.5892 0.209329 12.5892 0.210335C12.5882 0.211342 12.5892 0.212348 12.5892 0.213354C12.5892 0.21436 12.5892 0.216373 12.5892 0.217379C12.5892 0.218385 12.5902 0.219392 12.5902 0.220398C12.5922 0.223417 12.5912 0.220398 12.5872 0.215367C12.5832 0.210335 12.5761 0.205304 12.5691 0.199267C12.5611 0.194235 12.552 0.188198 12.543 0.183167C12.5239 0.173104 12.5018 0.164048 12.4797 0.155998C12.4345 0.139898 12.3863 0.126817 12.3381 0.116754C12.2406 0.0976352 12.1392 0.0855602 12.0377 0.0815352C11.9865 0.0795227 11.9363 0.0785165 11.8851 0.0785165C11.8338 0.0795227 11.7826 0.0815352 11.7324 0.0855602C11.5285 0.0996477 11.3256 0.134867 11.1277 0.189204C11.0283 0.216373 10.9308 0.247567 10.8354 0.283792C10.8113 0.292848 10.7872 0.301904 10.7641 0.311967L10.729 0.326054L10.6948 0.341148C10.6717 0.351211 10.6496 0.362279 10.6265 0.373348C10.6044 0.384417 10.5823 0.396492 10.5602 0.409573C10.4738 0.459886 10.3915 0.517242 10.3141 0.580636C10.2368 0.64403 10.1625 0.712455 10.0921 0.783899C10.0218 0.855343 9.95353 0.929805 9.88824 1.00729C9.82295 1.08376 9.75967 1.16326 9.6984 1.24376C9.57686 1.40576 9.46336 1.57582 9.35689 1.7499C9.25042 1.92398 9.14998 2.1031 9.05355 2.28523C9.00534 2.37579 8.95913 2.46736 8.91293 2.55993C8.86672 2.65251 8.82152 2.74508 8.77833 2.83867L8.76025 2.83162Z" fill="#333333"/>
<path d="M7.99569 11.8868C7.99569 11.8868 7.96657 11.9411 8.0198 12.4633C8.07304 12.9846 8.25785 13.7715 7.62305 14.5845C7.62305 14.5845 7.90529 14.0804 7.78175 13.4354C7.6582 12.7904 7.66322 12.3919 7.84905 11.9854C7.84804 11.9854 7.84603 11.8515 7.99569 11.8868Z" fill="#333333"/>
<path d="M7.72451 11.9971C7.72451 11.9971 7.76168 12.0283 7.70844 12.1611C7.62608 12.3664 7.48747 12.7709 7.52363 13.0889C7.55878 13.4068 7.71748 13.9995 7.55878 14.3265C7.55878 14.3265 7.53267 13.8224 7.40912 13.5135C7.28557 13.2046 7.21727 12.6934 7.55275 12.145" fill="#333333"/>
<path d="M7.39292 12.1946C7.411 12.2922 7.39795 12.4019 7.33668 12.5166C7.2754 12.6313 7.1157 12.9845 7.15989 13.3206C7.20409 13.6567 7.30956 13.9394 7.2744 13.9656C7.23925 13.9918 6.85153 13.2904 6.9128 12.8225C6.97407 12.3546 7.23824 12.3395 7.24728 12.2077C7.25632 12.0759 7.39292 12.1946 7.39292 12.1946Z" fill="#333333"/>
</svg>
